<svg xmlns="http://www.w3.org/2000/svg" xmlns:xlink="http://www.w3.org/1999/xlink" width="2000" zoomAndPan="magnify" viewBox="0 0 1500 1499.999933" height="2000" preserveAspectRatio="xMidYMid meet" version="1.0"><defs><g/><clipPath id="50927c094f"><path d="M 1.578125 1.332031 L 701.589844 1.332031 L 701.589844 356.679688 L 1.578125 356.679688 Z M 1.578125 1.332031 " clip-rule="nonzero"/></clipPath><clipPath id="fd9a361bd0"><path d="M 17.632812 511.378906 L 84.875 511.378906 L 84.875 578.617188 L 17.632812 578.617188 Z M 17.632812 511.378906 " clip-rule="nonzero"/></clipPath><clipPath id="983a93cbec"><path d="M 17.632812 372.71875 L 70.179688 372.71875 L 70.179688 425.265625 L 17.632812 425.265625 Z M 17.632812 372.71875 " clip-rule="nonzero"/></clipPath><clipPath id="e0476cf95c"><path d="M 607.117188 188.382812 L 659.664062 188.382812 L 659.664062 240.925781 L 607.117188 240.925781 Z M 607.117188 188.382812 " clip-rule="nonzero"/></clipPath><clipPath id="d7dfcacd6d"><path d="M 607.117188 439.695312 L 688.164062 439.695312 L 688.164062 520.738281 L 607.117188 520.738281 Z M 607.117188 439.695312 " clip-rule="nonzero"/></clipPath><clipPath id="3dcb5fa729"><rect x="0" width="703" y="0" height="579"/></clipPath></defs><g fill="#f963af" fill-opacity="1"><g transform="translate(993.560693, 858.044449)"><g><path d="M -2.15625 -52.203125 C -2.320312 -53.765625 -2.664062 -55.257812 -3.1875 -56.6875 C -3.71875 -58.113281 -4.363281 -59.085938 -5.125 -59.609375 L 23.90625 -62.71875 C 26.007812 -62.945312 28.101562 -62.835938 30.1875 -62.390625 C 32.269531 -61.953125 34.175781 -61.179688 35.90625 -60.078125 C 37.644531 -58.972656 39.085938 -57.554688 40.234375 -55.828125 C 41.378906 -54.109375 42.078125 -52.082031 42.328125 -49.75 C 42.648438 -46.695312 42.101562 -43.921875 40.6875 -41.421875 C 39.269531 -38.921875 37.25 -37.070312 34.625 -35.875 C 35.976562 -36.007812 37.40625 -35.898438 38.90625 -35.546875 C 40.40625 -35.191406 41.835938 -34.503906 43.203125 -33.484375 C 44.578125 -32.472656 45.753906 -31.082031 46.734375 -29.3125 C 47.722656 -27.550781 48.359375 -25.378906 48.640625 -22.796875 C 48.960938 -19.785156 48.457031 -16.867188 47.125 -14.046875 C 45.800781 -11.222656 43.570312 -8.8125 40.4375 -6.8125 C 37.3125 -4.820312 33.222656 -3.554688 28.171875 -3.015625 L 1.234375 -0.125 C 1.867188 -0.832031 2.289062 -1.941406 2.5 -3.453125 C 2.707031 -4.960938 2.734375 -6.476562 2.578125 -8 Z M 25.109375 -28.765625 L 14.5 -27.625 L 16.03125 -13.4375 L 26.640625 -14.578125 C 29.671875 -14.898438 31.8125 -15.8125 33.0625 -17.3125 C 34.320312 -18.820312 34.84375 -20.582031 34.625 -22.59375 C 34.40625 -24.65625 33.519531 -26.28125 31.96875 -27.46875 C 30.425781 -28.65625 28.140625 -29.085938 25.109375 -28.765625 Z M 12.140625 -49.734375 L 13.328125 -38.65625 L 23.1875 -39.71875 C 24.875 -39.894531 26.222656 -40.582031 27.234375 -41.78125 C 28.253906 -42.988281 28.679688 -44.351562 28.515625 -45.875 C 28.347656 -47.40625 27.640625 -48.648438 26.390625 -49.609375 C 25.148438 -50.578125 23.6875 -50.972656 22 -50.796875 Z M 12.140625 -49.734375 "/></g></g></g><g fill="#f963af" fill-opacity="1"><g transform="translate(1041.108777, 852.933284)"><g><path d="M 22.890625 -0.59375 C 18.722656 -0.3125 15 -1.003906 11.71875 -2.671875 C 8.4375 -4.335938 5.804688 -6.8125 3.828125 -10.09375 C 1.847656 -13.382812 0.707031 -17.28125 0.40625 -21.78125 C 0.101562 -26.3125 0.710938 -30.320312 2.234375 -33.8125 C 3.765625 -37.3125 6.046875 -40.109375 9.078125 -42.203125 C 12.109375 -44.296875 15.707031 -45.484375 19.875 -45.765625 C 24.082031 -46.046875 27.820312 -45.347656 31.09375 -43.671875 C 34.375 -42.003906 37.003906 -39.539062 38.984375 -36.28125 C 40.960938 -33.019531 42.101562 -29.125 42.40625 -24.59375 C 42.707031 -20.09375 42.09375 -16.082031 40.5625 -12.5625 C 39.039062 -9.039062 36.765625 -6.234375 33.734375 -4.140625 C 30.710938 -2.054688 27.097656 -0.875 22.890625 -0.59375 Z M 13.40625 -22.59375 C 13.625 -19.332031 14.507812 -16.753906 16.0625 -14.859375 C 17.613281 -12.972656 19.628906 -12.113281 22.109375 -12.28125 C 24.578125 -12.445312 26.46875 -13.566406 27.78125 -15.640625 C 29.101562 -17.722656 29.65625 -20.394531 29.4375 -23.65625 C 29.207031 -26.945312 28.300781 -29.535156 26.71875 -31.421875 C 25.144531 -33.304688 23.125 -34.164062 20.65625 -34 C 18.175781 -33.832031 16.289062 -32.710938 15 -30.640625 C 13.707031 -28.566406 13.175781 -25.882812 13.40625 -22.59375 Z M 13.40625 -22.59375 "/></g></g></g><g fill="#f963af" fill-opacity="1"><g transform="translate(1082.706287, 850.090837)"><g><path d="M 2.109375 -28.28125 C 2.097656 -28.738281 2.035156 -29.441406 1.921875 -30.390625 C 1.816406 -31.335938 1.5625 -32.320312 1.15625 -33.34375 C 0.75 -34.363281 0.125 -35.234375 -0.71875 -35.953125 C -1.570312 -36.671875 -2.738281 -37.007812 -4.21875 -36.96875 L -4.234375 -37.28125 C -2.710938 -37.40625 -1.082031 -37.734375 0.65625 -38.265625 C 2.40625 -38.796875 4.125 -39.445312 5.8125 -40.21875 C 7.507812 -41 9.101562 -41.796875 10.59375 -42.609375 C 12.082031 -43.421875 13.332031 -44.148438 14.34375 -44.796875 L 15.203125 -16.546875 C 15.265625 -14.554688 15.820312 -13.039062 16.875 -12 C 17.9375 -10.957031 19.234375 -10.457031 20.765625 -10.5 C 22.710938 -10.5625 24.179688 -11.226562 25.171875 -12.5 C 26.171875 -13.769531 26.875 -15.113281 27.28125 -16.53125 L 26.90625 -29.03125 C 26.894531 -29.488281 26.832031 -30.191406 26.71875 -31.140625 C 26.601562 -32.097656 26.34375 -33.082031 25.9375 -34.09375 C 25.53125 -35.113281 24.90625 -35.984375 24.0625 -36.703125 C 23.21875 -37.429688 22.050781 -37.769531 20.5625 -37.71875 L 20.546875 -38.03125 C 22.078125 -38.164062 23.710938 -38.492188 25.453125 -39.015625 C 27.191406 -39.546875 28.90625 -40.195312 30.59375 -40.96875 C 32.289062 -41.75 33.882812 -42.546875 35.375 -43.359375 C 36.863281 -44.171875 38.113281 -44.898438 39.125 -45.546875 L 39.53125 -32.21875 C 39.613281 -29.40625 39.695312 -26.632812 39.78125 -23.90625 C 39.863281 -21.175781 39.957031 -18.0625 40.0625 -14.5625 C 40.09375 -13.40625 40.226562 -12.25 40.46875 -11.09375 C 40.71875 -9.945312 41.195312 -9 41.90625 -8.25 C 42.613281 -7.507812 43.710938 -7.160156 45.203125 -7.203125 L 45.203125 -6.890625 C 44.023438 -6.242188 42.785156 -5.523438 41.484375 -4.734375 C 40.179688 -3.953125 38.925781 -3.210938 37.71875 -2.515625 C 36.519531 -1.816406 35.460938 -1.234375 34.546875 -0.765625 C 33.640625 -0.304688 33 -0.0664062 32.625 -0.046875 C 31.59375 -0.015625 30.703125 -0.421875 29.953125 -1.265625 C 29.203125 -2.117188 28.617188 -3.191406 28.203125 -4.484375 C 27.796875 -5.773438 27.578125 -7.039062 27.546875 -8.28125 L 27.359375 -14.171875 L 21.421875 -1.34375 C 20.648438 -0.851562 19.789062 -0.4375 18.84375 -0.09375 C 17.90625 0.238281 16.863281 0.421875 15.71875 0.453125 C 11.789062 0.578125 8.648438 -0.472656 6.296875 -2.703125 C 3.953125 -4.929688 2.710938 -8.378906 2.578125 -13.046875 Z M 2.109375 -28.28125 "/></g></g></g><g fill="#f963af" fill-opacity="1"><g transform="translate(1122.856608, 848.917719)"><g><path d="M -0.03125 -31.625 L -0.046875 -43.40625 C 1.109375 -43.894531 2.421875 -44.59375 3.890625 -45.5 C 5.359375 -46.414062 6.851562 -47.472656 8.375 -48.671875 C 9.90625 -49.878906 11.328125 -51.132812 12.640625 -52.4375 C 13.960938 -53.738281 15.0625 -55.007812 15.9375 -56.25 L 16.25 -56.25 L 16.265625 -43.421875 L 25.625 -43.4375 L 25.640625 -31.65625 L 16.28125 -31.640625 L 16.296875 -17.5625 C 16.296875 -14.75 16.707031 -12.867188 17.53125 -11.921875 C 18.351562 -10.972656 19.53125 -10.5 21.0625 -10.5 C 22.007812 -10.507812 22.851562 -10.695312 23.59375 -11.0625 C 24.34375 -11.4375 25.007812 -11.957031 25.59375 -12.625 C 25.800781 -10.757812 26.132812 -8.957031 26.59375 -7.21875 C 27.050781 -5.488281 27.445312 -3.921875 27.78125 -2.515625 C 26.738281 -1.515625 25.285156 -0.691406 23.421875 -0.046875 C 21.566406 0.597656 19.648438 0.921875 17.671875 0.921875 C 13.035156 0.921875 9.539062 -0.4375 7.1875 -3.15625 C 4.832031 -5.882812 3.648438 -9.75 3.640625 -14.75 L 3.625 -31.625 Z M -0.03125 -31.625 "/></g></g></g><g fill="#f963af" fill-opacity="1"><g transform="translate(1148.744875, 848.900771)"><g><path d="M -1.828125 -37.4375 C -0.296875 -37.488281 1.347656 -37.734375 3.109375 -38.171875 C 4.878906 -38.617188 6.628906 -39.191406 8.359375 -39.890625 C 10.085938 -40.585938 11.710938 -41.300781 13.234375 -42.03125 C 14.753906 -42.769531 16.039062 -43.441406 17.09375 -44.046875 L 16.453125 -7.46875 C 16.421875 -5.9375 16.578125 -4.410156 16.921875 -2.890625 C 17.265625 -1.378906 17.78125 -0.304688 18.46875 0.328125 L 1.421875 0.03125 C 2.140625 -0.582031 2.695312 -1.628906 3.09375 -3.109375 C 3.488281 -4.585938 3.703125 -6.09375 3.734375 -7.625 L 4.09375 -28.140625 C 4.09375 -28.597656 4.0625 -29.300781 4 -30.25 C 3.9375 -31.207031 3.726562 -32.203125 3.375 -33.234375 C 3.019531 -34.273438 2.4375 -35.175781 1.625 -35.9375 C 0.8125 -36.695312 -0.335938 -37.09375 -1.828125 -37.125 Z M 11 -47.125 C 9.46875 -47.144531 8.085938 -47.535156 6.859375 -48.296875 C 5.640625 -49.054688 4.664062 -50.070312 3.9375 -51.34375 C 3.21875 -52.625 2.867188 -54.007812 2.890625 -55.5 C 2.921875 -57.03125 3.316406 -58.414062 4.078125 -59.65625 C 4.847656 -60.90625 5.859375 -61.890625 7.109375 -62.609375 C 8.367188 -63.335938 9.765625 -63.691406 11.296875 -63.671875 C 12.828125 -63.640625 14.210938 -63.238281 15.453125 -62.46875 C 16.703125 -61.707031 17.6875 -60.6875 18.40625 -59.40625 C 19.125 -58.132812 19.46875 -56.734375 19.4375 -55.203125 C 19.414062 -53.710938 19.023438 -52.34375 18.265625 -51.09375 C 17.503906 -49.851562 16.484375 -48.875 15.203125 -48.15625 C 13.929688 -47.4375 12.53125 -47.09375 11 -47.125 Z M 11 -47.125 "/></g></g></g><g fill="#f963af" fill-opacity="1"><g transform="translate(1164.593718, 848.989913)"><g><path d="M 2.71875 -20.1875 C 2.832031 -22.988281 3.335938 -25.742188 4.234375 -28.453125 C 5.140625 -31.171875 6.441406 -33.613281 8.140625 -35.78125 C 9.835938 -37.945312 11.9375 -39.640625 14.4375 -40.859375 C 16.9375 -42.078125 19.859375 -42.613281 23.203125 -42.46875 L 43.890625 -41.609375 C 43.160156 -41.015625 42.578125 -39.988281 42.140625 -38.53125 C 41.703125 -37.082031 41.453125 -35.578125 41.390625 -34.015625 L 39.6875 6.328125 C 39.644531 7.484375 39.703125 8.640625 39.859375 9.796875 C 40.015625 10.960938 40.414062 11.941406 41.0625 12.734375 C 41.71875 13.535156 42.785156 13.96875 44.265625 14.03125 L 44.25 14.34375 C 43.039062 14.90625 41.757812 15.53125 40.40625 16.21875 C 39.050781 16.90625 37.75 17.550781 36.5 18.15625 C 35.257812 18.769531 34.160156 19.273438 33.203125 19.671875 C 32.253906 20.066406 31.59375 20.253906 31.21875 20.234375 C 30.1875 20.191406 29.328125 19.722656 28.640625 18.828125 C 27.953125 17.929688 27.453125 16.820312 27.140625 15.5 C 26.828125 14.1875 26.695312 12.910156 26.75 11.671875 L 27.734375 -11.921875 L 21.359375 1.21875 C 20.609375 1.4375 19.988281 1.578125 19.5 1.640625 C 19.019531 1.703125 18.429688 1.71875 17.734375 1.6875 C 15.128906 1.570312 12.863281 0.882812 10.9375 -0.375 C 9.007812 -1.644531 7.414062 -3.304688 6.15625 -5.359375 C 4.894531 -7.421875 3.976562 -9.722656 3.40625 -12.265625 C 2.832031 -14.816406 2.601562 -17.457031 2.71875 -20.1875 Z M 15.6875 -18.890625 C 15.613281 -17.191406 15.820312 -15.609375 16.3125 -14.140625 C 16.8125 -12.671875 17.5625 -11.476562 18.5625 -10.5625 C 19.5625 -9.65625 20.765625 -9.171875 22.171875 -9.109375 C 23.410156 -9.054688 24.40625 -9.359375 25.15625 -10.015625 C 25.914062 -10.671875 26.484375 -11.441406 26.859375 -12.328125 C 27.242188 -13.222656 27.515625 -14.039062 27.671875 -14.78125 C 27.828125 -15.519531 27.90625 -15.953125 27.90625 -16.078125 L 28.484375 -29.640625 C 28.003906 -29.910156 27.457031 -30.128906 26.84375 -30.296875 C 26.226562 -30.472656 25.550781 -30.578125 24.8125 -30.609375 C 22.945312 -30.679688 21.347656 -30.15625 20.015625 -29.03125 C 18.691406 -27.914062 17.660156 -26.453125 16.921875 -24.640625 C 16.179688 -22.828125 15.769531 -20.910156 15.6875 -18.890625 Z M 15.6875 -18.890625 "/></g></g></g><g fill="#f963af" fill-opacity="1"><g transform="translate(1203.432641, 850.540358)"><g><path d="M 5.125 -27.890625 C 5.164062 -28.335938 5.179688 -29.039062 5.171875 -30 C 5.171875 -30.96875 5.023438 -31.976562 4.734375 -33.03125 C 4.441406 -34.082031 3.910156 -35.007812 3.140625 -35.8125 C 2.367188 -36.625 1.25 -37.085938 -0.21875 -37.203125 L -0.203125 -37.515625 C 1.316406 -37.484375 2.972656 -37.632812 4.765625 -37.96875 C 6.554688 -38.3125 8.332031 -38.773438 10.09375 -39.359375 C 11.863281 -39.953125 13.53125 -40.570312 15.09375 -41.21875 C 16.65625 -41.863281 17.976562 -42.457031 19.0625 -43 L 16.875 -14.8125 C 16.726562 -12.832031 17.125 -11.265625 18.0625 -10.109375 C 19.007812 -8.953125 20.25 -8.316406 21.78125 -8.203125 C 23.71875 -8.054688 25.25 -8.554688 26.375 -9.703125 C 27.5 -10.859375 28.34375 -12.125 28.90625 -13.5 L 29.875 -25.984375 C 29.914062 -26.429688 29.929688 -27.132812 29.921875 -28.09375 C 29.910156 -29.050781 29.753906 -30.054688 29.453125 -31.109375 C 29.160156 -32.171875 28.628906 -33.101562 27.859375 -33.90625 C 27.097656 -34.71875 25.976562 -35.179688 24.5 -35.296875 L 24.515625 -35.609375 C 26.046875 -35.578125 27.703125 -35.726562 29.484375 -36.0625 C 31.273438 -36.40625 33.050781 -36.867188 34.8125 -37.453125 C 36.582031 -38.035156 38.25 -38.648438 39.8125 -39.296875 C 41.382812 -39.953125 42.707031 -40.546875 43.78125 -41.078125 L 42.75 -27.78125 C 42.53125 -24.976562 42.316406 -22.210938 42.109375 -19.484375 C 41.898438 -16.765625 41.660156 -13.65625 41.390625 -10.15625 C 41.296875 -9.007812 41.304688 -7.847656 41.421875 -6.671875 C 41.546875 -5.503906 41.921875 -4.515625 42.546875 -3.703125 C 43.171875 -2.890625 44.222656 -2.425781 45.703125 -2.3125 L 45.671875 -2 C 44.441406 -1.476562 43.132812 -0.898438 41.75 -0.265625 C 40.375 0.367188 39.050781 0.96875 37.78125 1.53125 C 36.507812 2.101562 35.394531 2.570312 34.4375 2.9375 C 33.476562 3.3125 32.8125 3.484375 32.4375 3.453125 C 31.40625 3.367188 30.5625 2.863281 29.90625 1.9375 C 29.25 1.019531 28.789062 -0.0976562 28.53125 -1.421875 C 28.269531 -2.753906 28.1875 -4.039062 28.28125 -5.28125 L 28.734375 -11.140625 L 21.4375 0.96875 C 20.625 1.363281 19.726562 1.679688 18.75 1.921875 C 17.78125 2.160156 16.71875 2.234375 15.5625 2.140625 C 11.644531 1.835938 8.640625 0.457031 6.546875 -2 C 4.453125 -4.46875 3.585938 -8.03125 3.953125 -12.6875 Z M 5.125 -27.890625 "/></g></g></g><g fill="#f963af" fill-opacity="1"><g transform="translate(1243.381286, 853.586628)"><g><path d="M 23.0625 3.53125 C 19.445312 3.125 16.359375 2.171875 13.796875 0.671875 C 11.242188 -0.828125 9.207031 -2.707031 7.6875 -4.96875 C 6.175781 -7.226562 5.140625 -9.765625 4.578125 -12.578125 C 4.023438 -15.390625 3.914062 -18.316406 4.25 -21.359375 C 4.59375 -24.398438 5.367188 -27.222656 6.578125 -29.828125 C 7.785156 -32.429688 9.421875 -34.671875 11.484375 -36.546875 C 13.546875 -38.421875 16.007812 -39.796875 18.875 -40.671875 C 21.738281 -41.554688 25.015625 -41.796875 28.703125 -41.390625 C 31.828125 -41.035156 34.488281 -40.082031 36.6875 -38.53125 C 38.894531 -36.976562 40.53125 -35.109375 41.59375 -32.921875 C 42.65625 -30.742188 43.066406 -28.570312 42.828125 -26.40625 C 42.597656 -24.351562 41.828125 -22.421875 40.515625 -20.609375 C 39.210938 -18.796875 37.25 -17.421875 34.625 -16.484375 C 32.007812 -15.554688 28.582031 -15.328125 24.34375 -15.796875 L 17.140625 -16.609375 C 17.398438 -14.378906 18.195312 -12.5625 19.53125 -11.15625 C 20.863281 -9.757812 22.6875 -8.929688 25 -8.671875 C 26.507812 -8.503906 27.84375 -8.664062 29 -9.15625 C 30.15625 -9.65625 31.140625 -10.265625 31.953125 -10.984375 C 32.765625 -11.710938 33.335938 -12.320312 33.671875 -12.8125 C 34.535156 -11.101562 35.578125 -9.421875 36.796875 -7.765625 C 38.023438 -6.109375 39.210938 -4.632812 40.359375 -3.34375 C 38.234375 -0.675781 35.617188 1.222656 32.515625 2.359375 C 29.410156 3.492188 26.257812 3.882812 23.0625 3.53125 Z M 17.09375 -17.296875 C 19.113281 -17.453125 21.097656 -17.882812 23.046875 -18.59375 C 25.003906 -19.3125 26.664062 -20.300781 28.03125 -21.5625 C 29.394531 -22.820312 30.175781 -24.335938 30.375 -26.109375 C 30.46875 -26.929688 30.269531 -27.765625 29.78125 -28.609375 C 29.289062 -29.453125 28.390625 -29.945312 27.078125 -30.09375 C 25.878906 -30.226562 24.566406 -29.945312 23.140625 -29.25 C 21.710938 -28.5625 20.429688 -27.4375 19.296875 -25.875 C 18.160156 -24.320312 17.457031 -22.332031 17.1875 -19.90625 C 17.09375 -19.007812 17.0625 -18.140625 17.09375 -17.296875 Z M 17.09375 -17.296875 "/></g></g></g><g fill="#f963af" fill-opacity="1"><g transform="translate(812.630729, 758.155931)"><g><path d="M -23.671875 -126.558594 C -23.984375 -129.070312 -24.578125 -131.46875 -25.460938 -133.746094 C -25.695312 -134.355469 -25.875 -134.753906 -25.996094 -134.933594 C -25.652344 -134.421875 -25.097656 -133.910156 -24.339844 -133.390625 L -60.035156 -157.796875 L 46.339844 -170.972656 C 54.039062 -171.929688 61.878906 -171.625 69.851562 -170.0625 C 78.042969 -168.457031 85.695312 -165.476562 92.816406 -161.121094 C 100.265625 -156.5625 106.507812 -150.585938 111.535156 -143.195312 C 116.722656 -135.566406 119.953125 -126.601562 121.230469 -116.296875 C 123.015625 -101.90625 120.441406 -89.21875 113.507812 -78.234375 C 106.886719 -67.738281 97.726562 -59.894531 86.027344 -54.703125 L 79.394531 -69.644531 L 93.867188 -77.257812 L 105.359375 -55.402344 C 110.464844 -45.71875 114.824219 -38.707031 118.433594 -34.371094 C 120.015625 -32.472656 121.375 -31.039062 122.507812 -30.070312 C 122.824219 -29.796875 123.066406 -29.613281 123.230469 -29.507812 C 123.042969 -29.628906 122.753906 -29.753906 122.363281 -29.894531 L 118.914062 1.746094 L 33.828125 12.285156 L 53.117188 -17.222656 C 52.457031 -16.210938 52.015625 -15.175781 51.800781 -14.117188 C 51.710938 -13.679688 51.671875 -13.351562 51.683594 -13.132812 C 51.699219 -12.917969 51.71875 -12.738281 51.753906 -12.589844 L 51.753906 -12.574219 C 51.742188 -12.617188 51.726562 -12.664062 51.707031 -12.722656 C 51.53125 -13.230469 51.21875 -13.878906 50.777344 -14.660156 L 50.597656 -14.980469 L 17.789062 -79.707031 L 32.375 -87.097656 L 48.601562 -89.109375 L 56.40625 -26.101562 C 56.703125 -23.6875 57.292969 -21.34375 58.171875 -19.0625 C 58.40625 -18.453125 58.585938 -18.058594 58.710938 -17.875 C 58.363281 -18.386719 57.8125 -18.902344 57.054688 -19.421875 L 92.75 4.988281 L -37.867188 21.167969 L -9.207031 -11.214844 C -9.832031 -10.507812 -10.25 -9.859375 -10.460938 -9.269531 C -10.378906 -9.492188 -10.300781 -9.941406 -10.21875 -10.617188 C -9.921875 -13.109375 -9.925781 -15.570312 -10.226562 -18.003906 Z M 8.78125 -130.578125 L 22.226562 -22.023438 C 22.851562 -16.964844 22.859375 -11.871094 22.25 -6.75 C 21.394531 0.441406 19.070312 6.179688 15.28125 10.460938 L 3.035156 -0.375 L 1.027344 -16.601562 L 45.816406 -22.148438 L 47.824219 -5.925781 L 38.597656 7.574219 C 33.890625 4.355469 30.246094 -0.601562 27.664062 -7.292969 C 25.820312 -12.074219 24.582031 -17.003906 23.953125 -22.082031 L 16.148438 -85.089844 L 46.957031 -94.492188 L 79.601562 -30.089844 L 65.015625 -22.699219 L 79.253906 -30.734375 C 82.332031 -25.28125 84.023438 -20.078125 84.324219 -15.121094 C 84.695312 -9.070312 83.414062 -3.804688 80.488281 0.671875 L 66.804688 -8.273438 L 64.792969 -24.5 L 114.894531 -30.707031 L 116.90625 -14.480469 L 111.445312 0.933594 C 108.035156 -0.277344 104.644531 -2.320312 101.269531 -5.203125 C 98.726562 -7.375 96.074219 -10.121094 93.308594 -13.4375 C 88.230469 -19.539062 82.597656 -28.453125 76.417969 -40.179688 L 56.789062 -77.5 L 72.761719 -84.589844 C 78.402344 -87.09375 82.765625 -90.792969 85.851562 -95.683594 C 88.628906 -100.082031 89.605469 -105.613281 88.777344 -112.277344 C 88.148438 -117.355469 86.722656 -121.53125 84.496094 -124.804688 C 82.109375 -128.3125 79.195312 -131.121094 75.75 -133.226562 C 71.972656 -135.539062 67.910156 -137.117188 63.566406 -137.96875 C 59.007812 -138.863281 54.605469 -139.046875 50.363281 -138.519531 L -13.101562 -130.660156 L -15.109375 -146.886719 L -5.882812 -160.382812 C -1.175781 -157.167969 2.46875 -152.210938 5.050781 -145.519531 C 6.894531 -140.734375 8.136719 -135.753906 8.78125 -130.578125 Z M 30.363281 -103.324219 L 52.074219 -106.015625 C 52.902344 -106.117188 53.550781 -106.261719 54.023438 -106.445312 C 54.113281 -106.480469 54.171875 -106.507812 54.207031 -106.527344 C 54.167969 -106.503906 54.121094 -106.46875 54.0625 -106.417969 C 54.402344 -106.703125 54.609375 -106.9375 54.675781 -107.125 C 54.855469 -107.625 54.9375 -107.945312 54.921875 -108.082031 C 54.839844 -108.730469 54.539062 -109.289062 54.011719 -109.753906 C 54.207031 -109.582031 54.367188 -109.480469 54.492188 -109.449219 C 53.957031 -109.578125 53.113281 -109.574219 51.960938 -109.429688 L 29.945312 -106.703125 L 27.9375 -122.929688 L 44.164062 -124.941406 L 48.601562 -89.109375 L 32.375 -87.097656 Z M 18.15625 -68.863281 L 9.699219 -137.144531 L 47.941406 -141.882812 C 53.0625 -142.515625 57.835938 -142.292969 62.253906 -141.214844 C 67.335938 -139.972656 71.789062 -137.667969 75.617188 -134.296875 C 82.359375 -128.367188 86.277344 -120.964844 87.375 -112.101562 C 88.035156 -106.773438 87.382812 -101.402344 85.417969 -95.984375 C 83.34375 -90.25 79.867188 -85.355469 74.992188 -81.292969 C 69.921875 -77.070312 63.625 -74.496094 56.09375 -73.5625 L 34.382812 -70.871094 Z M 18.15625 -68.863281 "/></g></g></g><g fill="#f963af" fill-opacity="1"><g transform="translate(916.390287, 745.15756)"><g><path d="M 58.824219 14.011719 C 47.578125 14.910156 37.421875 13.769531 28.351562 10.589844 C 19.078125 7.335938 11.191406 2.421875 4.691406 -4.164062 C -1.558594 -10.488281 -6.425781 -17.925781 -9.914062 -26.464844 C -13.222656 -34.570312 -15.246094 -43.230469 -15.980469 -52.441406 C -16.722656 -61.726562 -16.027344 -70.671875 -13.902344 -79.277344 C -11.671875 -88.316406 -7.835938 -96.46875 -2.394531 -103.734375 C 3.171875 -111.167969 10.285156 -117.199219 18.949219 -121.828125 C 27.480469 -126.386719 37.453125 -129.121094 48.867188 -130.03125 C 59.398438 -130.871094 68.96875 -129.339844 77.582031 -125.441406 C 86.160156 -121.554688 93.089844 -116.113281 98.367188 -109.117188 C 103.882812 -101.804688 106.984375 -93.875 107.664062 -85.324219 C 108.296875 -77.386719 106.855469 -69.625 103.339844 -62.035156 C 99.601562 -53.960938 93.3125 -47.316406 84.480469 -42.101562 C 76.402344 -37.335938 65.871094 -34.433594 52.894531 -33.398438 L 35.050781 -31.972656 L 33.75 -48.273438 L 49.359375 -53.140625 C 49.910156 -51.375 50.628906 -50.179688 51.515625 -49.550781 C 52.195312 -49.070312 53.414062 -48.902344 55.175781 -49.042969 C 55.789062 -49.089844 56.285156 -49.175781 56.660156 -49.296875 C 56.742188 -49.324219 56.804688 -49.347656 56.851562 -49.367188 C 56.847656 -49.367188 56.835938 -49.359375 56.816406 -49.347656 C 57.910156 -50.085938 58.730469 -50.8125 59.269531 -51.519531 C 59.796875 -52.210938 60.214844 -52.796875 60.519531 -53.277344 C 60.613281 -53.421875 60.679688 -53.539062 60.726562 -53.625 C 60.710938 -53.59375 60.683594 -53.53125 60.640625 -53.4375 L 71.824219 -78.863281 L 88.628906 -56.742188 C 90.890625 -53.765625 93.535156 -50.890625 96.5625 -48.117188 C 99.96875 -45 103.175781 -42.285156 106.179688 -39.976562 L 117.074219 -31.609375 L 110.710938 -19.4375 C 105.382812 -9.246094 97.914062 -1.265625 88.300781 4.503906 C 79.128906 10.007812 69.300781 13.175781 58.824219 14.011719 Z M 56.222656 -18.585938 C 61.605469 -19.011719 66.6875 -20.664062 71.476562 -23.539062 C 75.828125 -26.148438 79.246094 -29.832031 81.730469 -34.585938 L 96.21875 -27.011719 L 86.261719 -14.042969 C 82.507812 -16.925781 78.582031 -20.242188 74.484375 -23.996094 C 70.003906 -28.097656 66.039062 -32.417969 62.585938 -36.964844 L 75.609375 -46.851562 L 90.574219 -40.269531 C 89.445312 -37.703125 87.675781 -34.839844 85.265625 -31.679688 C 82.5625 -28.136719 79.1875 -24.996094 75.136719 -22.257812 C 70.183594 -18.910156 64.398438 -16.972656 57.773438 -16.445312 C 48.148438 -15.675781 39.769531 -17.808594 32.644531 -22.84375 C 25.726562 -27.734375 20.890625 -34.589844 18.140625 -43.40625 L 12.050781 -62.945312 L 50.292969 -65.996094 C 58.257812 -66.628906 64.109375 -68.050781 67.855469 -70.261719 C 70.84375 -72.027344 72.78125 -73.867188 73.667969 -75.78125 C 74.78125 -78.175781 75.246094 -80.492188 75.066406 -82.722656 C 74.890625 -84.945312 73.957031 -87.179688 72.261719 -89.421875 C 70.332031 -91.980469 67.609375 -94.058594 64.089844 -95.652344 C 60.597656 -97.234375 56.394531 -97.828125 51.46875 -97.433594 C 44.585938 -96.886719 38.882812 -95.402344 34.363281 -92.988281 C 29.972656 -90.640625 26.445312 -87.6875 23.78125 -84.132812 C 20.992188 -80.410156 19.015625 -76.175781 17.84375 -71.4375 C 16.566406 -66.265625 16.15625 -60.800781 16.617188 -55.039062 C 17.082031 -49.203125 18.332031 -43.800781 20.359375 -38.824219 C 22.214844 -34.289062 24.746094 -30.390625 27.957031 -27.140625 C 30.917969 -24.144531 34.65625 -21.855469 39.171875 -20.269531 C 43.890625 -18.617188 49.574219 -18.054688 56.222656 -18.585938 Z M 29.03125 -65.707031 C 32.363281 -66.609375 35.574219 -67.992188 38.660156 -69.855469 C 41.195312 -71.390625 43.183594 -73.132812 44.621094 -75.082031 C 44.933594 -75.503906 45.074219 -75.871094 45.046875 -76.183594 C 45.117188 -75.308594 45.328125 -74.488281 45.671875 -73.722656 C 45.894531 -73.234375 46.132812 -72.839844 46.386719 -72.546875 C 47.589844 -71.160156 49.035156 -70.195312 50.722656 -69.648438 C 51.574219 -69.375 52.261719 -69.257812 52.792969 -69.300781 C 53.082031 -69.324219 53.277344 -69.359375 53.386719 -69.402344 C 53.078125 -69.273438 52.667969 -69.015625 52.15625 -68.632812 C 51.207031 -67.925781 50.308594 -66.65625 49.457031 -64.828125 C 48.664062 -63.132812 48.390625 -60.722656 48.640625 -57.59375 C 48.753906 -56.167969 48.953125 -54.847656 49.238281 -53.628906 L 33.3125 -49.925781 Z M 37.59375 -34.144531 L 21.226562 -29.707031 L 17.386719 -46.222656 C 16.734375 -49.023438 16.289062 -51.949219 16.042969 -54.996094 C 15.335938 -63.863281 16.597656 -71.753906 19.824219 -78.667969 C 22.992188 -85.449219 27.238281 -90.832031 32.566406 -94.816406 C 38.226562 -99.050781 44.101562 -101.414062 50.191406 -101.898438 C 53.972656 -102.199219 57.5 -101.824219 60.765625 -100.769531 C 64.867188 -99.445312 68.308594 -97.183594 71.089844 -93.976562 C 75.011719 -89.453125 77.199219 -84.386719 77.644531 -78.785156 C 78.316406 -70.355469 76.085938 -62.65625 70.949219 -55.683594 C 66.9375 -50.242188 61.808594 -45.636719 55.5625 -41.863281 C 49.863281 -38.421875 43.875 -35.851562 37.59375 -34.144531 Z M 37.59375 -34.144531 "/></g></g></g><g fill="#f963af" fill-opacity="1"><g transform="translate(1006.570171, 737.636535)"><g><path d="M -25.726562 -90.625 L -26.308594 -106.867188 L -10.878906 -108.257812 C -8.261719 -108.492188 -5.355469 -109.105469 -2.164062 -110.089844 C 1.421875 -111.199219 4.964844 -112.566406 8.464844 -114.191406 C 12.28125 -115.96875 15.851562 -117.769531 19.171875 -119.605469 C 22.484375 -121.4375 25.222656 -123.054688 27.390625 -124.464844 L 51.605469 -140.195312 L 53.894531 -76.171875 L 37.554688 -75.589844 L 22.679688 -82.375 L 39.273438 -118.757812 L 43.648438 -121.371094 C 46.496094 -123.074219 49.515625 -124.519531 52.710938 -125.714844 C 56.632812 -127.179688 60.90625 -127.996094 65.527344 -128.160156 C 72.320312 -128.402344 78.578125 -127.578125 84.304688 -125.691406 C 90.46875 -123.65625 95.878906 -120.453125 100.542969 -116.070312 C 109.621094 -107.542969 114.445312 -95.28125 115.019531 -79.277344 L 117.019531 -23.320312 C 117.109375 -20.875 117.496094 -18.441406 118.183594 -16.027344 C 118.371094 -15.375 118.519531 -14.941406 118.632812 -14.738281 C 118.332031 -15.285156 117.816406 -15.859375 117.085938 -16.457031 L 150.515625 10.976562 L 22.039062 15.574219 L 53.421875 -14.179688 C 52.753906 -13.546875 52.289062 -12.949219 52.03125 -12.390625 C 52.125 -12.589844 52.238281 -13.011719 52.375 -13.648438 C 52.878906 -16.039062 53.089844 -18.449219 53.003906 -20.878906 L 51.269531 -69.34375 C 51.246094 -70 51.199219 -70.421875 51.128906 -70.609375 C 51.285156 -70.191406 51.582031 -69.773438 52.011719 -69.359375 C 52.308594 -69.070312 52.710938 -68.828125 53.214844 -68.640625 C 53.664062 -68.46875 54.039062 -68.390625 54.347656 -68.402344 C 54.125 -68.394531 53.964844 -68.378906 53.871094 -68.359375 C 53.976562 -68.378906 54.113281 -68.429688 54.28125 -68.507812 C 54.90625 -68.796875 55.425781 -69.210938 55.84375 -69.75 C 54.726562 -68.304688 53.953125 -66.816406 53.535156 -65.285156 L 37.769531 -69.625 L 54.109375 -70.210938 L 55.867188 -21.132812 C 55.953125 -18.6875 56.339844 -16.253906 57.027344 -13.839844 C 57.214844 -13.1875 57.363281 -12.753906 57.480469 -12.550781 C 57.175781 -13.097656 56.660156 -13.671875 55.933594 -14.269531 L 89.359375 13.164062 L -39.113281 17.761719 L -7.734375 -11.992188 C -8.398438 -11.359375 -8.863281 -10.761719 -9.125 -10.203125 C -9.03125 -10.402344 -8.917969 -10.824219 -8.78125 -11.460938 C -8.273438 -13.851562 -8.0625 -16.261719 -8.152344 -18.691406 L -9.960938 -69.296875 C -9.984375 -69.945312 -10.109375 -71.203125 -10.339844 -73.070312 C -10.457031 -74 -10.753906 -75.0625 -11.234375 -76.261719 L -11.222656 -76.226562 C -10.484375 -75.609375 -9.714844 -75.1875 -8.914062 -74.960938 C -8.734375 -74.910156 -8.589844 -74.878906 -8.476562 -74.867188 C -8.539062 -74.871094 -8.648438 -74.875 -8.800781 -74.867188 L -25.140625 -74.28125 Z M 6.953125 -91.792969 L -9.386719 -91.207031 L -9.972656 -107.546875 C -2.121094 -107.828125 4.457031 -105.746094 9.769531 -101.296875 C 13.972656 -97.777344 17.089844 -93.488281 19.117188 -88.429688 C 20.65625 -84.597656 21.652344 -80.8125 22.113281 -77.066406 C 22.460938 -74.257812 22.660156 -72.058594 22.71875 -70.464844 L 24.527344 -19.859375 C 24.710938 -14.746094 24.269531 -9.683594 23.207031 -4.667969 C 21.714844 2.347656 18.902344 7.816406 14.765625 11.738281 L 3.515625 -0.125 L 2.933594 -16.464844 L 44.976562 -17.96875 L 45.558594 -1.628906 L 35.1875 11.007812 C 30.765625 7.378906 27.5625 2.082031 25.578125 -4.882812 C 24.164062 -9.84375 23.367188 -14.871094 23.1875 -19.964844 L 21.339844 -71.550781 L 22.007812 -73.96875 C 23.570312 -79.652344 26.234375 -84.921875 29.992188 -89.773438 C 32.847656 -93.460938 36.394531 -96.28125 40.632812 -98.226562 C 44.421875 -99.964844 48.601562 -100.917969 53.175781 -101.082031 C 57.253906 -101.226562 61.121094 -100.609375 64.777344 -99.226562 C 68.488281 -97.824219 71.816406 -95.699219 74.757812 -92.851562 C 80.554688 -87.238281 83.617188 -79.792969 83.949219 -70.511719 L 85.683594 -22.046875 C 85.867188 -16.9375 85.425781 -11.871094 84.359375 -6.855469 C 82.871094 0.160156 80.058594 5.628906 75.921875 9.550781 L 64.671875 -2.3125 L 64.085938 -18.652344 L 106.128906 -20.15625 L 106.714844 -3.816406 L 96.34375 8.820312 C 91.921875 5.191406 88.71875 -0.105469 86.734375 -7.070312 C 85.320312 -12.03125 84.523438 -17.058594 84.339844 -22.152344 L 82.339844 -78.109375 C 82.195312 -82.136719 81.644531 -85.457031 80.683594 -88.070312 C 80.019531 -89.890625 79.175781 -91.277344 78.152344 -92.238281 C 75.65625 -94.582031 71.835938 -95.664062 66.695312 -95.480469 C 65.609375 -95.441406 64.761719 -95.308594 64.152344 -95.078125 C 62.816406 -94.578125 61.570312 -93.988281 60.421875 -93.300781 L 52.035156 -107.335938 L 66.910156 -100.550781 L 52.433594 -68.804688 L 21.214844 -75.003906 L 19.957031 -110.167969 L 36.296875 -110.753906 L 45.207031 -97.042969 C 42.386719 -95.210938 38.980469 -93.191406 34.988281 -90.984375 C 31 -88.78125 26.75 -86.632812 22.238281 -84.535156 C 17.40625 -82.289062 12.492188 -80.394531 7.5 -78.851562 C 2.109375 -77.183594 -3.039062 -76.128906 -7.949219 -75.6875 L -9.414062 -91.972656 L 6.925781 -92.558594 Z M 6.953125 -91.792969 "/></g></g></g><g fill="#f963af" fill-opacity="1"><g transform="translate(1105.658003, 733.903264)"><g><path d="M -10.070312 -102.550781 C -3.574219 -110.152344 4.222656 -115.902344 13.320312 -119.800781 C 22.179688 -123.601562 32.089844 -125.449219 43.046875 -125.351562 C 51.941406 -125.273438 60.460938 -124.011719 68.605469 -121.566406 C 77.15625 -119.003906 84.800781 -115.164062 91.539062 -110.046875 C 98.625 -104.671875 104.234375 -98.074219 108.367188 -90.257812 C 112.667969 -82.128906 114.769531 -72.914062 114.675781 -62.613281 L 114.398438 -31.863281 C 114.382812 -29.972656 114.535156 -28.074219 114.859375 -26.164062 C 114.867188 -26.105469 114.878906 -26.0625 114.882812 -26.042969 C 114.867188 -26.09375 114.84375 -26.15625 114.808594 -26.234375 C 114.679688 -26.519531 114.496094 -26.796875 114.261719 -27.066406 C 113.246094 -28.226562 112.089844 -29.039062 110.785156 -29.511719 C 110.46875 -29.628906 110.191406 -29.703125 109.953125 -29.742188 C 109.921875 -29.746094 109.910156 -29.746094 109.910156 -29.746094 C 109.964844 -29.742188 110.03125 -29.742188 110.117188 -29.742188 L 126.464844 -29.59375 L 126.222656 -2.527344 L 117.34375 1.964844 C 114.542969 3.378906 111.585938 4.945312 108.472656 6.660156 C 105.117188 8.507812 101.890625 10.253906 98.792969 11.898438 C 95.480469 13.65625 92.523438 15.128906 89.917969 16.316406 C 88.195312 17.101562 86.632812 17.71875 85.230469 18.171875 C 82.742188 18.976562 80.386719 19.371094 78.15625 19.351562 C 74.335938 19.316406 70.75 18.453125 67.398438 16.757812 C 64.261719 15.171875 61.519531 12.945312 59.175781 10.082031 C 55.953125 6.140625 53.589844 1.453125 52.089844 -3.988281 C 50.792969 -8.679688 50.167969 -13.320312 50.207031 -17.90625 L 50.355469 -34.121094 L 66.703125 -33.976562 L 80.4375 -25.101562 C 78.433594 -21.996094 76.195312 -18.589844 73.722656 -14.875 C 71.335938 -11.292969 69.050781 -7.808594 66.871094 -4.429688 C 64.605469 -0.914062 62.675781 2.039062 61.082031 4.433594 L 47.46875 -4.621094 L 61.515625 3.746094 C 60.136719 6.0625 58.191406 8.222656 55.683594 10.21875 C 54.128906 11.453125 52.253906 12.71875 50.054688 14.011719 C 44.375 17.351562 37.933594 18.988281 30.734375 18.921875 C 21.21875 18.835938 13.144531 16.628906 6.515625 12.292969 C -0.269531 7.859375 -5.175781 1.953125 -8.210938 -5.425781 C -10.792969 -11.710938 -12.054688 -18.558594 -11.988281 -25.964844 C -11.914062 -34.117188 -9.945312 -41.707031 -6.078125 -48.730469 C -2.503906 -55.230469 2.277344 -60.894531 8.265625 -65.726562 C 14.015625 -70.363281 20.472656 -73.960938 27.628906 -76.523438 C 34.882812 -79.117188 42.4375 -80.378906 50.292969 -80.308594 C 58.679688 -80.230469 66.285156 -78.601562 73.101562 -75.414062 L 66.179688 -60.601562 L 50.179688 -57.226562 C 49.683594 -59.585938 48.820312 -61.28125 47.585938 -62.320312 C 46.488281 -63.246094 44.894531 -63.71875 42.800781 -63.738281 C 39.730469 -63.765625 37.125 -63.285156 34.984375 -62.304688 C 33.445312 -61.597656 32.085938 -60.355469 30.90625 -58.574219 L 15.277344 -35.039062 L 2.65625 -60.316406 C 0.503906 -64.628906 -1.582031 -68.371094 -3.59375 -71.539062 C -5.753906 -74.9375 -8.210938 -78.574219 -10.964844 -82.449219 L -18.363281 -92.847656 Z M 14.785156 -81.304688 L 2.359375 -91.925781 L 15.679688 -101.402344 C 18.769531 -97.066406 21.542969 -92.953125 24.011719 -89.070312 C 26.625 -84.957031 29.257812 -80.242188 31.914062 -74.921875 L 17.285156 -67.621094 L 3.664062 -76.664062 C 8.273438 -83.605469 14.160156 -88.722656 21.328125 -92.015625 C 27.894531 -95.035156 35.148438 -96.507812 43.09375 -96.4375 C 53.035156 -96.347656 61.554688 -93.3125 68.65625 -87.328125 C 75.625 -81.457031 80.132812 -73.675781 82.175781 -63.976562 L 88.941406 -31.914062 L 59.253906 -45.789062 C 56.730469 -46.96875 53.644531 -47.574219 49.996094 -47.609375 C 46.023438 -47.644531 42.238281 -47.019531 38.644531 -45.734375 C 34.957031 -44.414062 31.675781 -42.59375 28.792969 -40.269531 C 26.152344 -38.140625 24.078125 -35.707031 22.574219 -32.96875 C 21.355469 -30.761719 20.738281 -28.328125 20.714844 -25.667969 C 20.6875 -22.671875 21.125 -20.070312 22.035156 -17.859375 C 22.496094 -16.738281 23.289062 -15.808594 24.410156 -15.074219 C 25.695312 -14.238281 27.898438 -13.804688 31.027344 -13.777344 C 32.191406 -13.765625 33.007812 -13.898438 33.480469 -14.179688 C 34.355469 -14.691406 34.96875 -15.089844 35.316406 -15.367188 C 34.710938 -14.882812 34.078125 -14.089844 33.421875 -12.988281 L 33.628906 -13.335938 L 33.855469 -13.675781 C 35.363281 -15.945312 37.207031 -18.769531 39.390625 -22.152344 C 41.65625 -25.667969 44.027344 -29.28125 46.5 -32.996094 C 48.890625 -36.585938 51.046875 -39.867188 52.96875 -42.847656 L 83.5625 -90.199219 L 82.90625 -17.613281 C 82.894531 -16.078125 83.128906 -14.4375 83.613281 -12.6875 C 83.886719 -11.6875 84.179688 -11 84.484375 -10.625 C 83.910156 -11.332031 83.128906 -11.933594 82.148438 -12.425781 C 80.957031 -13.03125 79.722656 -13.339844 78.453125 -13.351562 C 77.140625 -13.363281 76.046875 -13.226562 75.171875 -12.941406 C 75.378906 -13.007812 75.773438 -13.175781 76.355469 -13.441406 C 78.363281 -14.355469 80.730469 -15.535156 83.464844 -16.988281 C 86.414062 -18.550781 89.492188 -20.21875 92.695312 -21.984375 C 96.144531 -23.882812 99.4375 -25.625 102.582031 -27.214844 L 109.960938 -12.625 L 93.613281 -12.773438 L 93.617188 -13.539062 L 109.96875 -13.390625 L 109.820312 2.960938 C 106.121094 2.925781 102.726562 2.347656 99.640625 1.230469 C 95.667969 -0.210938 92.34375 -2.460938 89.664062 -5.519531 C 85.964844 -9.742188 83.617188 -14.804688 82.617188 -20.707031 C 81.972656 -24.519531 81.664062 -28.335938 81.699219 -32.15625 L 81.976562 -62.90625 C 82.019531 -67.695312 81.183594 -71.714844 79.460938 -74.964844 C 77.582031 -78.523438 75.015625 -81.539062 71.765625 -84.003906 C 68.171875 -86.734375 63.988281 -88.8125 59.214844 -90.246094 C 54.035156 -91.796875 48.546875 -92.601562 42.753906 -92.652344 C 36.375 -92.710938 30.859375 -91.742188 26.203125 -89.746094 C 21.785156 -87.851562 17.980469 -85.039062 14.785156 -81.304688 Z M 53.402344 -37.15625 C 53.414062 -38.386719 53.125 -39.398438 52.535156 -40.1875 C 51.460938 -41.625 50.167969 -42.632812 48.660156 -43.214844 C 48.324219 -43.34375 48.035156 -43.429688 47.789062 -43.46875 C 47.828125 -43.460938 47.941406 -43.457031 48.125 -43.457031 C 48.351562 -43.453125 48.742188 -43.636719 49.289062 -44 C 50.542969 -44.832031 51.671875 -46.097656 52.679688 -47.800781 L 66.753906 -39.484375 L 50.402344 -39.628906 L 50.527344 -53.246094 C 50.53125 -53.742188 50.519531 -54.261719 50.492188 -54.808594 C 50.472656 -55.222656 50.445312 -55.5625 50.410156 -55.828125 L 66.613281 -57.996094 L 58.546875 -43.773438 C 58.9375 -43.554688 59.324219 -43.394531 59.710938 -43.300781 C 59.886719 -43.253906 60 -43.234375 60.054688 -43.234375 C 59.230469 -43.242188 58.496094 -43.019531 57.851562 -42.574219 C 56.292969 -41.496094 55.082031 -40.238281 54.222656 -38.800781 C 53.84375 -38.171875 53.585938 -37.640625 53.445312 -37.203125 C 53.417969 -37.117188 53.402344 -37.054688 53.394531 -37.011719 C 53.398438 -37.042969 53.402344 -37.09375 53.402344 -37.15625 Z M 20.703125 -37.449219 C 20.757812 -43.578125 22.585938 -49.640625 26.183594 -55.636719 C 29.464844 -61.097656 33.816406 -65.707031 39.234375 -69.457031 C 45.570312 -73.84375 52.609375 -76.003906 60.351562 -75.933594 C 62.855469 -75.910156 65.261719 -75.613281 67.570312 -75.039062 C 70.097656 -74.414062 72.464844 -73.472656 74.683594 -72.214844 L 81.746094 -68.210938 L 82.820312 -60.164062 C 82.976562 -58.996094 83.085938 -57.753906 83.152344 -56.4375 C 83.210938 -55.25 83.238281 -54.085938 83.226562 -52.949219 L 83.0625 -34.945312 L 80.828125 -31.164062 C 77.277344 -25.15625 72.792969 -20.355469 67.378906 -16.757812 C 61.257812 -12.695312 54.742188 -10.695312 47.832031 -10.757812 C 43.8125 -10.792969 40.171875 -11.441406 36.90625 -12.699219 C 32.550781 -14.375 29.03125 -17.011719 26.34375 -20.605469 C 22.527344 -25.707031 20.648438 -31.324219 20.703125 -37.449219 Z M 20.703125 -37.449219 "/></g></g></g><g fill="#f963af" fill-opacity="1"><g transform="translate(1200.364315, 734.60759)"><g><path d="M -9.007812 -54.074219 C -8.53125 -63.378906 -6.679688 -72.160156 -3.449219 -80.414062 C -0.0585938 -89.082031 4.808594 -96.664062 11.148438 -103.160156 C 17.636719 -109.804688 25.476562 -114.855469 34.667969 -118.316406 C 43.71875 -121.726562 53.964844 -123.136719 65.402344 -122.550781 C 73.945312 -122.113281 81.503906 -120.503906 88.074219 -117.71875 C 94.289062 -115.085938 99.542969 -112.03125 103.828125 -108.550781 C 107.761719 -105.355469 110.847656 -102.40625 113.078125 -99.699219 L 125.175781 -85.027344 L 113.917969 -74.535156 C 111.042969 -71.855469 108.144531 -68.8125 105.230469 -65.414062 C 102.1875 -61.863281 99.527344 -58.535156 97.246094 -55.425781 L 79.765625 -31.574219 L 68.863281 -59.0625 C 68.609375 -59.695312 68.132812 -60.261719 67.429688 -60.757812 C 66.65625 -61.304688 65.757812 -61.605469 64.734375 -61.65625 C 63.308594 -61.730469 62.082031 -61.464844 61.050781 -60.859375 C 59.640625 -60.03125 58.453125 -58.800781 57.484375 -57.164062 C 56.445312 -55.410156 55.863281 -53.277344 55.734375 -50.761719 C 55.542969 -47.003906 56.058594 -44.320312 57.28125 -42.710938 C 57.511719 -42.402344 57.785156 -42.175781 58.089844 -42.027344 C 58.777344 -41.695312 59.777344 -41.5 61.097656 -41.429688 C 61.714844 -41.398438 62.214844 -41.417969 62.601562 -41.488281 C 62.6875 -41.503906 62.753906 -41.519531 62.800781 -41.535156 C 62.796875 -41.535156 62.785156 -41.53125 62.765625 -41.519531 C 63.945312 -42.109375 64.851562 -42.722656 65.476562 -43.351562 C 66.089844 -43.96875 66.582031 -44.496094 66.949219 -44.9375 C 67.058594 -45.066406 67.140625 -45.171875 67.199219 -45.25 C 67.179688 -45.222656 67.144531 -45.164062 67.089844 -45.074219 L 81.492188 -68.828125 L 95.269531 -44.707031 C 97.125 -41.457031 99.371094 -38.261719 102.011719 -35.121094 C 104.980469 -31.585938 107.808594 -28.476562 110.484375 -25.796875 L 120.195312 -16.082031 L 112.300781 -4.839844 C 105.691406 4.570312 97.242188 11.507812 86.960938 15.972656 C 77.148438 20.234375 66.992188 22.097656 56.492188 21.5625 C 45.230469 20.984375 35.308594 18.527344 26.730469 14.195312 C 17.960938 9.761719 10.78125 3.859375 5.195312 -3.515625 C -0.175781 -10.601562 -4.035156 -18.609375 -6.378906 -27.53125 C -8.605469 -36 -9.480469 -44.847656 -9.007812 -54.074219 Z M 23.648438 -52.40625 C 23.351562 -46.558594 23.882812 -41.035156 25.246094 -35.839844 C 26.492188 -31.097656 28.496094 -26.90625 31.257812 -23.265625 C 33.800781 -19.90625 37.207031 -17.152344 41.480469 -14.992188 C 45.941406 -12.734375 51.503906 -11.4375 58.164062 -11.097656 C 63.558594 -10.820312 68.8125 -11.796875 73.9375 -14.019531 C 78.589844 -16.039062 82.457031 -19.246094 85.539062 -23.636719 L 98.921875 -14.238281 L 87.355469 -2.679688 C 84.011719 -6.027344 80.550781 -9.828125 76.976562 -14.082031 C 73.070312 -18.730469 69.703125 -23.53125 66.871094 -28.488281 L 81.070312 -36.597656 L 95.050781 -28.121094 C 93.597656 -25.722656 91.46875 -23.113281 88.667969 -20.296875 C 85.527344 -17.136719 81.769531 -14.460938 77.398438 -12.273438 C 72.050781 -9.601562 66.0625 -8.433594 59.425781 -8.773438 C 53.714844 -9.066406 48.535156 -10.332031 43.890625 -12.570312 C 38.867188 -14.992188 34.652344 -18.441406 31.25 -22.917969 C 25.199219 -30.871094 22.476562 -40.710938 23.078125 -52.433594 C 23.480469 -60.308594 25.566406 -67.433594 29.335938 -73.808594 C 33.175781 -80.300781 38.230469 -85.386719 44.507812 -89.066406 C 51.164062 -92.972656 58.464844 -94.722656 66.40625 -94.3125 C 73.738281 -93.9375 80.367188 -91.65625 86.296875 -87.46875 C 92.296875 -83.230469 96.617188 -77.78125 99.257812 -71.121094 L 84.058594 -65.089844 L 70.871094 -74.757812 C 73.644531 -78.535156 76.820312 -82.515625 80.402344 -86.695312 C 84.113281 -91.023438 87.855469 -94.945312 91.625 -98.460938 L 102.773438 -86.496094 L 90.15625 -76.097656 L 87.847656 -78.894531 C 87.003906 -79.917969 85.460938 -81.339844 83.21875 -83.160156 C 81.328125 -84.695312 78.695312 -86.179688 75.316406 -87.609375 C 72.289062 -88.890625 68.429688 -89.652344 63.730469 -89.894531 C 56.832031 -90.246094 50.988281 -89.519531 46.191406 -87.714844 C 41.53125 -85.960938 37.652344 -83.492188 34.546875 -80.316406 C 31.296875 -76.984375 28.78125 -73.046875 27.003906 -68.5 C 25.0625 -63.539062 23.945312 -58.175781 23.648438 -52.40625 Z M 23.648438 -52.40625 "/></g></g></g><g fill="#f963af" fill-opacity="1"><g transform="translate(1285.006835, 738.642344)"><g><path d="M 55.589844 23.792969 C 44.355469 22.769531 34.542969 19.917969 26.144531 15.246094 C 17.558594 10.46875 10.617188 4.285156 5.328125 -3.304688 C 0.246094 -10.601562 -3.292969 -18.753906 -5.277344 -27.761719 C -7.164062 -36.3125 -7.6875 -45.191406 -6.847656 -54.390625 C -6 -63.667969 -3.800781 -72.367188 -0.246094 -80.488281 C 3.488281 -89.015625 8.652344 -96.398438 15.246094 -102.632812 C 21.996094 -109.015625 30.03125 -113.75 39.351562 -116.84375 C 48.53125 -119.886719 58.824219 -120.890625 70.230469 -119.851562 C 80.75 -118.890625 89.921875 -115.757812 97.746094 -110.453125 C 105.542969 -105.167969 111.449219 -98.628906 115.460938 -90.839844 C 119.65625 -82.699219 121.363281 -74.355469 120.585938 -65.808594 C 119.863281 -57.882812 117.125 -50.476562 112.371094 -43.59375 C 107.316406 -36.273438 99.992188 -30.792969 90.398438 -27.152344 C 81.628906 -23.824219 70.761719 -22.753906 57.792969 -23.933594 L 39.96875 -25.5625 L 41.453125 -41.84375 L 57.664062 -43.992188 C 57.90625 -42.15625 58.410156 -40.859375 59.179688 -40.089844 C 59.765625 -39.5 60.941406 -39.125 62.699219 -38.964844 C 63.3125 -38.910156 63.8125 -38.910156 64.203125 -38.964844 C 64.289062 -38.976562 64.355469 -38.988281 64.402344 -39.003906 C 64.402344 -39 64.386719 -38.996094 64.367188 -38.988281 C 65.574219 -39.53125 66.5 -40.105469 67.152344 -40.710938 C 67.789062 -41.304688 68.300781 -41.8125 68.683594 -42.234375 C 68.800781 -42.359375 68.886719 -42.460938 68.949219 -42.539062 C 68.925781 -42.511719 68.886719 -42.457031 68.832031 -42.367188 L 84.167969 -65.527344 L 96.972656 -40.878906 C 98.699219 -37.558594 100.816406 -34.273438 103.328125 -31.03125 C 106.15625 -27.378906 108.855469 -24.160156 111.425781 -21.375 L 120.738281 -11.28125 L 112.402344 -0.367188 C 105.425781 8.773438 96.707031 15.371094 86.257812 19.425781 C 76.28125 23.292969 66.058594 24.75 55.589844 23.792969 Z M 58.5625 -8.773438 C 63.9375 -8.28125 69.226562 -9.046875 74.433594 -11.066406 C 79.164062 -12.898438 83.160156 -15.949219 86.414062 -20.210938 L 99.410156 -10.289062 L 87.394531 0.800781 C 84.183594 -2.675781 80.878906 -6.613281 77.476562 -11.007812 C 73.757812 -15.804688 70.585938 -20.738281 67.953125 -25.804688 L 82.464844 -33.339844 L 96.09375 -24.3125 C 94.546875 -21.972656 92.316406 -19.453125 89.40625 -16.75 C 86.140625 -13.71875 82.28125 -11.195312 77.824219 -9.183594 C 72.375 -6.722656 66.34375 -5.796875 59.726562 -6.398438 C 50.109375 -7.277344 42.214844 -10.800781 36.046875 -16.972656 C 30.058594 -22.964844 26.457031 -30.542969 25.246094 -39.695312 L 22.558594 -59.984375 L 60.765625 -56.5 C 68.71875 -55.773438 74.730469 -56.183594 78.796875 -57.726562 C 82.042969 -58.957031 84.265625 -60.441406 85.460938 -62.175781 C 86.964844 -64.351562 87.816406 -66.550781 88.019531 -68.78125 C 88.222656 -71.003906 87.679688 -73.363281 86.394531 -75.859375 C 84.925781 -78.710938 82.589844 -81.21875 79.394531 -83.386719 C 76.222656 -85.535156 72.179688 -86.835938 67.257812 -87.285156 C 60.382812 -87.914062 54.511719 -87.417969 49.644531 -85.804688 C 44.921875 -84.238281 40.945312 -81.929688 37.71875 -78.875 C 34.335938 -75.679688 31.667969 -71.84375 29.710938 -67.371094 C 27.574219 -62.492188 26.242188 -57.175781 25.71875 -51.421875 C 25.1875 -45.589844 25.5 -40.050781 26.65625 -34.808594 C 27.710938 -30.019531 29.546875 -25.75 32.160156 -22 C 34.566406 -18.546875 37.859375 -15.65625 42.042969 -13.328125 C 46.414062 -10.898438 51.917969 -9.378906 58.5625 -8.773438 Z M 39.761719 -59.824219 C 43.199219 -60.152344 46.597656 -60.96875 49.957031 -62.28125 C 52.714844 -63.363281 54.96875 -64.742188 56.71875 -66.417969 C 57.09375 -66.78125 57.296875 -67.117188 57.324219 -67.433594 C 57.246094 -66.558594 57.3125 -65.714844 57.523438 -64.902344 C 57.65625 -64.382812 57.824219 -63.953125 58.027344 -63.621094 C 58.980469 -62.050781 60.238281 -60.851562 61.808594 -60.03125 C 62.601562 -59.613281 63.257812 -59.382812 63.789062 -59.335938 C 64.078125 -59.308594 64.277344 -59.308594 64.390625 -59.335938 C 64.066406 -59.257812 63.621094 -59.074219 63.050781 -58.785156 C 61.996094 -58.246094 60.890625 -57.148438 59.742188 -55.496094 C 58.671875 -53.957031 57.996094 -51.628906 57.710938 -48.503906 C 57.582031 -47.078125 57.550781 -45.742188 57.625 -44.492188 L 41.300781 -43.546875 Z M 42.84375 -27.269531 L 25.960938 -25.671875 L 24.980469 -42.601562 C 24.8125 -45.472656 24.867188 -48.429688 25.144531 -51.472656 C 25.953125 -60.332031 28.535156 -67.894531 32.890625 -74.160156 C 37.164062 -80.304688 42.261719 -84.890625 48.1875 -87.914062 C 54.484375 -91.125 60.675781 -92.457031 66.757812 -91.902344 C 70.539062 -91.554688 73.945312 -90.585938 76.984375 -88.996094 C 80.804688 -86.996094 83.808594 -84.179688 86.007812 -80.546875 C 89.105469 -75.421875 90.402344 -70.0625 89.890625 -64.460938 C 89.125 -56.042969 85.617188 -48.832031 79.371094 -42.832031 C 74.496094 -38.152344 68.660156 -34.484375 61.863281 -31.824219 C 55.660156 -29.402344 49.320312 -27.882812 42.84375 -27.269531 Z M 42.84375 -27.269531 "/></g></g></g><g fill="#f963af" fill-opacity="1"><g transform="translate(1375.367563, 746.789101)"><g><path d="M 7.164062 -108.566406 C 9.785156 -108.367188 12.753906 -108.488281 16.0625 -108.933594 C 19.785156 -109.4375 23.503906 -110.199219 27.222656 -111.222656 C 31.285156 -112.339844 35.101562 -113.53125 38.679688 -114.789062 C 42.246094 -116.046875 45.21875 -117.191406 47.589844 -118.222656 L 74.070312 -129.738281 L 66.421875 -71.375 L 50.210938 -73.496094 L 34.792969 -78.941406 C 36.328125 -83.285156 38.410156 -87.59375 41.046875 -91.871094 C 43.816406 -96.363281 47.097656 -100.40625 50.886719 -104.003906 C 55.15625 -108.058594 59.996094 -111.171875 65.402344 -113.34375 C 71.523438 -115.804688 77.972656 -116.589844 84.75 -115.703125 C 89.882812 -115.03125 94.734375 -113.402344 99.304688 -110.824219 C 104.621094 -107.824219 108.441406 -104.316406 110.769531 -100.304688 L 114.992188 -93.019531 L 111.511719 -85.351562 C 109.613281 -81.15625 107.707031 -76.605469 105.796875 -71.695312 C 103.941406 -66.925781 102.34375 -62.277344 101 -57.757812 L 87.78125 -13.296875 L 70.195312 -56.21875 C 70.589844 -55.253906 71.046875 -54.523438 71.558594 -54.023438 C 71.398438 -54.179688 71.011719 -54.4375 70.394531 -54.792969 C 68.753906 -55.75 67.046875 -56.34375 65.273438 -56.578125 C 63.789062 -56.769531 62.621094 -56.820312 61.777344 -56.71875 C 61.683594 -56.707031 61.609375 -56.695312 61.554688 -56.683594 C 61.546875 -56.683594 61.542969 -56.683594 61.542969 -56.683594 C 61.554688 -56.6875 61.574219 -56.691406 61.59375 -56.699219 C 61.816406 -56.765625 62.066406 -56.878906 62.34375 -57.035156 C 63.242188 -57.550781 63.964844 -58.257812 64.511719 -59.160156 C 64.695312 -59.464844 64.832031 -59.753906 64.921875 -60.023438 L 64.933594 -59.996094 L 58.589844 -11.609375 C 58.273438 -9.179688 58.253906 -6.71875 58.53125 -4.222656 C 58.609375 -3.546875 58.683594 -3.097656 58.761719 -2.875 C 58.554688 -3.464844 58.140625 -4.117188 57.523438 -4.828125 L 85.953125 27.753906 L -41.511719 11.050781 L -5.644531 -13.105469 C -6.40625 -12.589844 -6.960938 -12.082031 -7.3125 -11.574219 C -7.1875 -11.753906 -7.003906 -12.148438 -6.765625 -12.753906 C -5.871094 -15.027344 -5.265625 -17.371094 -4.949219 -19.78125 L 1.628906 -69.988281 C 1.714844 -70.632812 1.796875 -71.894531 1.878906 -73.773438 C 1.921875 -74.710938 1.804688 -75.808594 1.527344 -77.070312 L 1.53125 -77.03125 C 2.15625 -76.300781 2.847656 -75.757812 3.601562 -75.402344 C 3.769531 -75.324219 3.90625 -75.269531 4.015625 -75.238281 C 3.957031 -75.253906 3.847656 -75.273438 3.695312 -75.292969 L -12.515625 -77.417969 L -8.28125 -109.746094 Z M 4.671875 -75.960938 L 5.917969 -92.261719 L 22.132812 -90.136719 L 22.03125 -89.378906 L 5.820312 -91.503906 L 7.945312 -107.714844 C 15.730469 -106.695312 21.878906 -103.554688 26.378906 -98.289062 C 29.945312 -94.121094 32.308594 -89.378906 33.472656 -84.054688 C 34.355469 -80.019531 34.714844 -76.121094 34.550781 -72.351562 C 34.425781 -69.523438 34.261719 -67.320312 34.054688 -65.742188 L 27.476562 -15.53125 C 26.808594 -10.460938 25.539062 -5.539062 23.660156 -0.769531 C 21.03125 5.90625 17.351562 10.835938 12.621094 14.019531 L 3.488281 0.457031 L 5.613281 -15.753906 L 47.328125 -10.289062 L 45.203125 5.921875 L 32.882812 16.675781 C 29.121094 12.363281 26.839844 6.609375 26.035156 -0.585938 C 25.460938 -5.710938 25.503906 -10.804688 26.167969 -15.859375 L 32.507812 -64.246094 C 33.085938 -68.664062 34.429688 -72.609375 36.53125 -76.085938 C 38.914062 -80.027344 42.113281 -83.140625 46.125 -85.433594 C 52.425781 -89.03125 60.222656 -90.21875 69.523438 -89 C 75.640625 -88.199219 81.414062 -86.21875 86.84375 -83.058594 C 93.578125 -79.136719 98.117188 -74.324219 100.457031 -68.613281 L 85.324219 -62.414062 L 69.652344 -67.074219 C 71.253906 -72.453125 73.140625 -77.945312 75.320312 -83.546875 C 77.445312 -89.015625 79.582031 -94.117188 81.730469 -98.855469 L 96.621094 -92.101562 L 82.476562 -83.902344 C 83.019531 -82.964844 83.582031 -82.257812 84.160156 -81.773438 C 84.035156 -81.875 83.726562 -82.066406 83.234375 -82.34375 C 82.347656 -82.847656 81.433594 -83.15625 80.5 -83.28125 C 79.386719 -83.425781 78.417969 -83.332031 77.59375 -83 C 76.050781 -82.382812 74.652344 -81.476562 73.402344 -80.289062 C 71.667969 -78.644531 70.164062 -76.785156 68.882812 -74.707031 C 67.46875 -72.417969 66.386719 -70.199219 65.628906 -68.054688 L 34 -75.621094 L 37.894531 -105.351562 L 54.105469 -103.230469 L 60.625 -88.234375 C 57.542969 -86.894531 53.847656 -85.464844 49.546875 -83.949219 C 45.25 -82.433594 40.703125 -81.015625 35.90625 -79.695312 C 30.769531 -78.28125 25.609375 -77.222656 20.429688 -76.527344 C 14.839844 -75.773438 9.585938 -75.585938 4.671875 -75.960938 Z M 4.671875 -75.960938 "/></g></g></g><g fill="#feffff" fill-opacity="1"><g transform="translate(812.630729, 758.155931)"><g><path d="M -7.4375 -128.5625 C -7.914062 -132.40625 -8.835938 -136.085938 -10.203125 -139.609375 C -11.566406 -143.140625 -13.195312 -145.5625 -15.09375 -146.875 L 48.34375 -154.734375 C 54.320312 -155.472656 60.441406 -155.226562 66.703125 -154 C 72.972656 -152.769531 78.832031 -150.488281 84.28125 -147.15625 C 89.726562 -143.832031 94.300781 -139.441406 98 -133.984375 C 101.707031 -128.535156 104.035156 -121.96875 104.984375 -114.28125 C 106.285156 -103.75 104.515625 -94.632812 99.671875 -86.9375 C 94.828125 -79.25 88.070312 -73.484375 79.40625 -69.640625 L 90.890625 -47.78125 C 96.523438 -37.082031 101.515625 -29.125 105.859375 -23.90625 C 110.210938 -18.6875 113.894531 -15.546875 116.90625 -14.484375 L 66.796875 -8.28125 C 67.742188 -9.726562 68.144531 -11.671875 68 -14.109375 C 67.851562 -16.554688 66.859375 -19.421875 65.015625 -22.703125 L 32.359375 -87.09375 L 40.171875 -24.09375 C 40.628906 -20.351562 41.539062 -16.71875 42.90625 -13.1875 C 44.28125 -9.65625 45.921875 -7.234375 47.828125 -5.921875 L 3.046875 -0.375 C 4.566406 -2.101562 5.554688 -4.867188 6.015625 -8.671875 C 6.472656 -12.484375 6.472656 -16.265625 6.015625 -20.015625 Z M 32.359375 -87.09375 L 54.09375 -89.78125 C 58.4375 -90.320312 61.910156 -91.675781 64.515625 -93.84375 C 67.128906 -96.019531 68.972656 -98.585938 70.046875 -101.546875 C 71.117188 -104.503906 71.484375 -107.351562 71.140625 -110.09375 C 70.554688 -114.851562 68.445312 -118.828125 64.8125 -122.015625 C 61.175781 -125.210938 56.21875 -126.421875 49.9375 -125.640625 L 27.921875 -122.921875 Z M 32.359375 -87.09375 "/></g></g></g><g fill="#feffff" fill-opacity="1"><g transform="translate(916.390287, 745.15756)"><g><path d="M 57.515625 -2.28125 C 48.578125 -1.5625 40.660156 -2.410156 33.765625 -4.828125 C 26.867188 -7.253906 21.054688 -10.863281 16.328125 -15.65625 C 11.597656 -20.445312 7.894531 -26.109375 5.21875 -32.640625 C 2.550781 -39.171875 0.921875 -46.203125 0.328125 -53.734375 C -0.273438 -61.253906 0.269531 -68.460938 1.96875 -75.359375 C 3.675781 -82.253906 6.585938 -88.445312 10.703125 -93.9375 C 14.816406 -99.4375 20.132812 -103.925781 26.65625 -107.40625 C 33.175781 -110.894531 41.007812 -113.003906 50.15625 -113.734375 C 57.882812 -114.359375 64.773438 -113.296875 70.828125 -110.546875 C 76.878906 -107.804688 81.707031 -104.046875 85.3125 -99.265625 C 88.914062 -94.484375 90.929688 -89.398438 91.359375 -84.015625 C 91.765625 -78.929688 90.8125 -73.894531 88.5 -68.90625 C 86.195312 -63.914062 82.085938 -59.675781 76.171875 -56.1875 C 70.265625 -52.695312 62.070312 -50.535156 51.59375 -49.703125 L 33.75 -48.28125 C 35.394531 -42.976562 38.171875 -38.945312 42.078125 -36.1875 C 45.984375 -33.4375 50.785156 -32.289062 56.484375 -32.75 C 60.242188 -33.039062 63.40625 -34.054688 65.96875 -35.796875 C 68.539062 -37.535156 70.632812 -39.46875 72.25 -41.59375 C 73.875 -43.71875 74.992188 -45.46875 75.609375 -46.84375 C 78.460938 -43.09375 81.765625 -39.5 85.515625 -36.0625 C 89.273438 -32.625 92.84375 -29.609375 96.21875 -27.015625 C 92.300781 -19.535156 86.851562 -13.695312 79.875 -9.5 C 72.90625 -5.3125 65.453125 -2.90625 57.515625 -2.28125 Z M 33.296875 -49.921875 C 38.109375 -51.222656 42.707031 -53.203125 47.09375 -55.859375 C 51.488281 -58.515625 55.046875 -61.6875 57.765625 -65.375 C 60.492188 -69.070312 61.6875 -73.101562 61.34375 -77.46875 C 61.175781 -79.507812 60.304688 -81.4375 58.734375 -83.25 C 57.160156 -85.070312 54.75 -85.851562 51.5 -85.59375 C 48.550781 -85.351562 45.503906 -84.0625 42.359375 -81.71875 C 39.222656 -79.382812 36.648438 -76.0625 34.640625 -71.75 C 32.640625 -67.445312 31.878906 -62.296875 32.359375 -56.296875 C 32.535156 -54.054688 32.847656 -51.929688 33.296875 -49.921875 Z M 33.296875 -49.921875 "/></g></g></g><g fill="#feffff" fill-opacity="1"><g transform="translate(1006.570171, 737.636535)"><g><path d="M -9.390625 -91.203125 L -9.421875 -91.96875 C -5.648438 -92.3125 -1.625 -93.144531 2.65625 -94.46875 C 6.945312 -95.800781 11.175781 -97.429688 15.34375 -99.359375 C 19.519531 -101.296875 23.429688 -103.273438 27.078125 -105.296875 C 30.734375 -107.316406 33.804688 -109.140625 36.296875 -110.765625 L 37.546875 -75.59375 L 52.046875 -107.34375 C 54.046875 -108.539062 56.175781 -109.5625 58.4375 -110.40625 C 60.695312 -111.257812 63.253906 -111.734375 66.109375 -111.828125 C 75.796875 -112.179688 83.539062 -109.625 89.34375 -104.15625 C 95.15625 -98.695312 98.265625 -90.207031 98.671875 -78.6875 L 100.671875 -22.734375 C 100.804688 -18.960938 101.398438 -15.234375 102.453125 -11.546875 C 103.515625 -7.859375 104.9375 -5.28125 106.71875 -3.8125 L 64.671875 -2.3125 C 66.347656 -3.90625 67.578125 -6.550781 68.359375 -10.25 C 69.148438 -13.945312 69.476562 -17.679688 69.34375 -21.453125 L 67.609375 -69.921875 C 67.429688 -74.816406 66.019531 -78.546875 63.375 -81.109375 C 60.738281 -83.671875 57.535156 -84.882812 53.765625 -84.75 C 48.972656 -84.570312 45.359375 -82.90625 42.921875 -79.75 C 40.484375 -76.601562 38.765625 -73.226562 37.765625 -69.625 L 39.515625 -20.546875 C 39.648438 -16.773438 40.242188 -13.046875 41.296875 -9.359375 C 42.347656 -5.671875 43.769531 -3.09375 45.5625 -1.625 L 3.515625 -0.125 C 5.203125 -1.71875 6.4375 -4.363281 7.21875 -8.0625 C 8.007812 -11.757812 8.335938 -15.492188 8.203125 -19.265625 L 6.390625 -69.875 C 6.347656 -71 6.179688 -72.726562 5.890625 -75.0625 C 5.609375 -77.40625 4.957031 -79.832031 3.9375 -82.34375 C 2.925781 -84.863281 1.375 -87.003906 -0.71875 -88.765625 C -2.820312 -90.523438 -5.710938 -91.335938 -9.390625 -91.203125 Z M -9.390625 -91.203125 "/></g></g></g><g fill="#feffff" fill-opacity="1"><g transform="translate(1105.658003, 733.903264)"><g><path d="M 2.359375 -91.921875 C 7.203125 -97.597656 13 -101.882812 19.75 -104.78125 C 26.507812 -107.675781 34.226562 -109.085938 42.90625 -109.015625 C 50.25 -108.941406 57.25 -107.90625 63.90625 -105.90625 C 70.570312 -103.914062 76.488281 -100.957031 81.65625 -97.03125 C 86.820312 -93.101562 90.90625 -88.296875 93.90625 -82.609375 C 96.914062 -76.929688 98.390625 -70.316406 98.328125 -62.765625 L 98.046875 -32.015625 C 98.015625 -29.160156 98.242188 -26.300781 98.734375 -23.4375 C 99.222656 -20.582031 100.296875 -18.203125 101.953125 -16.296875 C 103.617188 -14.390625 106.289062 -13.421875 109.96875 -13.390625 L 109.96875 -12.625 C 107 -11.125 103.867188 -9.46875 100.578125 -7.65625 C 97.296875 -5.851562 94.144531 -4.148438 91.125 -2.546875 C 88.113281 -0.941406 85.453125 0.382812 83.140625 1.4375 C 80.835938 2.488281 79.226562 3.007812 78.3125 3 C 75.757812 2.976562 73.597656 1.890625 71.828125 -0.265625 C 70.066406 -2.421875 68.738281 -5.109375 67.84375 -8.328125 C 66.957031 -11.554688 66.53125 -14.703125 66.5625 -17.765625 L 66.703125 -33.984375 C 64.734375 -30.929688 62.535156 -27.582031 60.109375 -23.9375 C 57.679688 -20.289062 55.351562 -16.738281 53.125 -13.28125 C 50.90625 -9.832031 49.019531 -6.945312 47.46875 -4.625 C 46.75 -3.40625 44.847656 -1.890625 41.765625 -0.078125 C 38.691406 1.722656 35.066406 2.609375 30.890625 2.578125 C 24.566406 2.515625 19.425781 1.191406 15.46875 -1.390625 C 11.507812 -3.984375 8.65625 -7.398438 6.90625 -11.640625 C 5.15625 -15.890625 4.304688 -20.617188 4.359375 -25.828125 C 4.410156 -31.234375 5.707031 -36.242188 8.25 -40.859375 C 10.789062 -45.472656 14.21875 -49.519531 18.53125 -53 C 22.851562 -56.476562 27.722656 -59.1875 33.140625 -61.125 C 38.554688 -63.070312 44.222656 -64.015625 50.140625 -63.953125 C 56.160156 -63.898438 61.503906 -62.78125 66.171875 -60.59375 C 64.898438 -66.625 62.210938 -71.363281 58.109375 -74.8125 C 54.015625 -78.269531 48.957031 -80.03125 42.9375 -80.09375 C 37.4375 -80.132812 32.507812 -79.15625 28.15625 -77.15625 C 23.800781 -75.15625 20.175781 -71.972656 17.28125 -67.609375 C 14.875 -72.441406 12.515625 -76.675781 10.203125 -80.3125 C 7.890625 -83.957031 5.273438 -87.828125 2.359375 -91.921875 Z M 37.0625 -37.3125 C 37.039062 -34.863281 37.832031 -32.554688 39.4375 -30.390625 C 41.050781 -28.234375 43.898438 -27.132812 47.984375 -27.09375 C 51.546875 -27.0625 54.992188 -28.15625 58.328125 -30.375 C 61.671875 -32.59375 64.476562 -35.628906 66.75 -39.484375 L 66.875 -53.109375 C 66.882812 -53.921875 66.867188 -54.757812 66.828125 -55.625 C 66.785156 -56.488281 66.71875 -57.28125 66.625 -58 C 65.707031 -58.519531 64.710938 -58.910156 63.640625 -59.171875 C 62.578125 -59.441406 61.429688 -59.582031 60.203125 -59.59375 C 55.921875 -59.625 52.03125 -58.429688 48.53125 -56.015625 C 45.039062 -53.597656 42.257812 -50.664062 40.1875 -47.21875 C 38.125 -43.769531 37.082031 -40.46875 37.0625 -37.3125 Z M 37.0625 -37.3125 "/></g></g></g><g fill="#feffff" fill-opacity="1"><g transform="translate(1200.364315, 734.60759)"><g><path d="M 7.328125 -53.25 C 7.710938 -60.78125 9.195312 -67.847656 11.78125 -74.453125 C 14.363281 -81.066406 18.050781 -86.828125 22.84375 -91.734375 C 27.644531 -96.648438 33.503906 -100.410156 40.421875 -103.015625 C 47.347656 -105.628906 55.394531 -106.703125 64.5625 -106.234375 C 71.1875 -105.890625 76.894531 -104.695312 81.6875 -102.65625 C 86.488281 -100.625 90.429688 -98.351562 93.515625 -95.84375 C 96.609375 -93.34375 98.925781 -91.160156 100.46875 -89.296875 C 102.007812 -87.429688 102.78125 -86.5 102.78125 -86.5 C 99.445312 -83.394531 96.125 -79.910156 92.8125 -76.046875 C 89.5 -72.191406 86.582031 -68.535156 84.0625 -65.078125 C 82.601562 -68.734375 80.195312 -71.742188 76.84375 -74.109375 C 73.5 -76.472656 69.742188 -77.765625 65.578125 -77.984375 C 60.890625 -78.222656 56.625 -77.210938 52.78125 -74.953125 C 48.9375 -72.703125 45.8125 -69.546875 43.40625 -65.484375 C 41.007812 -61.421875 39.675781 -56.796875 39.40625 -51.609375 C 39.007812 -43.859375 40.628906 -37.59375 44.265625 -32.8125 C 47.898438 -28.039062 53.234375 -25.472656 60.265625 -25.109375 C 64.035156 -24.921875 67.304688 -25.515625 70.078125 -26.890625 C 72.859375 -28.273438 75.1875 -29.914062 77.0625 -31.8125 C 78.945312 -33.71875 80.28125 -35.3125 81.0625 -36.59375 C 83.414062 -32.5 86.226562 -28.503906 89.5 -24.609375 C 92.769531 -20.710938 95.910156 -17.253906 98.921875 -14.234375 C 94.066406 -7.328125 87.90625 -2.253906 80.4375 0.984375 C 72.96875 4.222656 65.257812 5.640625 57.3125 5.234375 C 48.351562 4.773438 40.613281 2.898438 34.09375 -0.390625 C 27.582031 -3.679688 22.289062 -8.007812 18.21875 -13.375 C 14.15625 -18.75 11.226562 -24.847656 9.4375 -31.671875 C 7.644531 -38.503906 6.941406 -45.695312 7.328125 -53.25 Z M 7.328125 -53.25 "/></g></g></g><g fill="#feffff" fill-opacity="1"><g transform="translate(1285.006835, 738.642344)"><g><path d="M 57.078125 7.5 C 48.140625 6.6875 40.476562 4.503906 34.09375 0.953125 C 27.707031 -2.585938 22.585938 -7.117188 18.734375 -12.640625 C 14.890625 -18.171875 12.207031 -24.382812 10.6875 -31.28125 C 9.164062 -38.175781 8.75 -45.382812 9.4375 -52.90625 C 10.125 -60.414062 11.890625 -67.421875 14.734375 -73.921875 C 17.585938 -80.421875 21.503906 -86.03125 26.484375 -90.75 C 31.460938 -95.46875 37.460938 -98.992188 44.484375 -101.328125 C 51.515625 -103.660156 59.597656 -104.410156 68.734375 -103.578125 C 76.453125 -102.867188 83.0625 -100.648438 88.5625 -96.921875 C 94.070312 -93.203125 98.191406 -88.679688 100.921875 -83.359375 C 103.660156 -78.035156 104.785156 -72.6875 104.296875 -67.3125 C 103.828125 -62.226562 102.03125 -57.421875 98.90625 -52.890625 C 95.789062 -48.367188 91.019531 -44.882812 84.59375 -42.4375 C 78.175781 -40 69.734375 -39.257812 59.265625 -40.21875 L 41.453125 -41.84375 C 42.179688 -36.34375 44.234375 -31.90625 47.609375 -28.53125 C 50.992188 -25.15625 55.53125 -23.210938 61.21875 -22.703125 C 64.976562 -22.359375 68.269531 -22.820312 71.09375 -24.09375 C 73.925781 -25.363281 76.316406 -26.90625 78.265625 -28.71875 C 80.222656 -30.539062 81.625 -32.078125 82.46875 -33.328125 C 84.644531 -29.148438 87.289062 -25.046875 90.40625 -21.015625 C 93.519531 -16.992188 96.519531 -13.421875 99.40625 -10.296875 C 94.289062 -3.585938 87.9375 1.234375 80.34375 4.171875 C 72.757812 7.117188 65.003906 8.226562 57.078125 7.5 Z M 41.296875 -43.5625 C 46.253906 -44.019531 51.125 -45.179688 55.90625 -47.046875 C 60.6875 -48.910156 64.726562 -51.4375 68.03125 -54.625 C 71.34375 -57.8125 73.203125 -61.585938 73.609375 -65.953125 C 73.785156 -67.984375 73.25 -70.03125 72 -72.09375 C 70.757812 -74.15625 68.519531 -75.332031 65.28125 -75.625 C 62.332031 -75.894531 59.109375 -75.140625 55.609375 -73.359375 C 52.117188 -71.578125 49.019531 -68.734375 46.3125 -64.828125 C 43.601562 -60.929688 41.972656 -55.988281 41.421875 -50 C 41.222656 -47.757812 41.179688 -45.613281 41.296875 -43.5625 Z M 41.296875 -43.5625 "/></g></g></g><g fill="#feffff" fill-opacity="1"><g transform="translate(1375.367563, 746.789101)"><g><path d="M 5.90625 -92.265625 C 9.6875 -91.984375 13.800781 -92.140625 18.25 -92.734375 C 22.695312 -93.335938 27.132812 -94.242188 31.5625 -95.453125 C 35.988281 -96.671875 40.171875 -97.972656 44.109375 -99.359375 C 48.046875 -100.753906 51.378906 -102.046875 54.109375 -103.234375 L 50.203125 -73.5 C 51.359375 -76.738281 52.945312 -80 54.96875 -83.28125 C 56.988281 -86.5625 59.378906 -89.515625 62.140625 -92.140625 C 64.898438 -94.765625 68.019531 -96.773438 71.5 -98.171875 C 74.976562 -99.578125 78.691406 -100.019531 82.640625 -99.5 C 85.660156 -99.101562 88.535156 -98.132812 91.265625 -96.59375 C 93.992188 -95.050781 95.773438 -93.554688 96.609375 -92.109375 C 94.585938 -87.640625 92.566406 -82.8125 90.546875 -77.625 C 88.535156 -72.4375 86.796875 -67.363281 85.328125 -62.40625 C 84.390625 -64.695312 82.148438 -66.867188 78.609375 -68.921875 C 75.078125 -70.972656 71.34375 -72.257812 67.40625 -72.78125 C 56.070312 -74.257812 49.84375 -70.703125 48.71875 -62.109375 L 42.375 -13.734375 C 41.882812 -9.992188 41.851562 -6.21875 42.28125 -2.40625 C 42.707031 1.394531 43.679688 4.171875 45.203125 5.921875 L 3.484375 0.453125 C 5.410156 -0.835938 7.066406 -3.242188 8.453125 -6.765625 C 9.835938 -10.285156 10.773438 -13.914062 11.265625 -17.65625 L 17.84375 -67.859375 C 17.988281 -68.972656 18.113281 -70.703125 18.21875 -73.046875 C 18.320312 -75.398438 18.082031 -77.898438 17.5 -80.546875 C 16.914062 -83.203125 15.734375 -85.570312 13.953125 -87.65625 C 12.171875 -89.738281 9.457031 -91.019531 5.8125 -91.5 Z M 5.90625 -92.265625 "/></g></g></g><g transform="matrix(1, 0, 0, 1, 35, 441)"><g clip-path="url(#3dcb5fa729)"><g clip-path="url(#50927c094f)"><path fill="#f963af" d="M 424.855469 58.257812 C 419.203125 49.722656 412.835938 41.71875 405.566406 34.785156 C 401.933594 31.316406 398.070312 28.136719 394.011719 25.308594 C 389.945312 22.484375 385.660156 20.058594 381.210938 18.0625 C 376.78125 16.082031 372.183594 14.625 367.480469 13.714844 C 362.785156 12.78125 358.011719 12.378906 353.292969 12.5625 C 348.582031 12.738281 343.9375 13.488281 339.542969 14.824219 C 335.152344 16.160156 331.015625 18.117188 327.351562 20.648438 L 326.007812 21.636719 C 325.566406 21.96875 325.082031 22.273438 324.695312 22.636719 C 323.859375 23.3125 323.066406 24.042969 322.296875 24.800781 C 320.765625 26.324219 319.371094 27.996094 318.125 29.785156 C 315.636719 33.359375 313.738281 37.378906 312.570312 41.558594 C 311.394531 45.734375 310.910156 50.066406 311.234375 54.214844 C 311.5625 58.367188 312.683594 62.3125 314.582031 65.710938 C 314.792969 66.148438 315.074219 66.550781 315.324219 66.960938 C 315.5625 67.386719 315.863281 67.765625 316.136719 68.167969 C 316.394531 68.5625 316.738281 68.949219 317.054688 69.335938 L 318.003906 70.511719 C 319.421875 72.015625 320.886719 73.496094 322.632812 74.867188 C 324.308594 76.273438 326.226562 77.59375 328.171875 78.910156 C 330.179688 80.222656 332.246094 81.53125 334.429688 82.855469 C 338.769531 85.535156 343.429688 88.28125 348.058594 91.808594 L 349.785156 93.144531 C 350.355469 93.601562 350.917969 94.109375 351.484375 94.585938 C 352.640625 95.527344 353.730469 96.621094 354.832031 97.683594 C 355.394531 98.199219 355.902344 98.796875 356.425781 99.375 L 357.980469 101.121094 C 358.480469 101.710938 358.9375 102.347656 359.414062 102.957031 C 359.878906 103.578125 360.371094 104.183594 360.804688 104.820312 C 364.339844 109.929688 366.957031 115.527344 368.746094 121.285156 C 370.53125 127.058594 371.523438 132.976562 371.773438 138.890625 C 372.03125 144.800781 371.605469 150.695312 370.539062 156.5 C 369.46875 162.257812 367.859375 167.804688 365.796875 173.105469 C 361.675781 183.738281 356.046875 193.394531 349.902344 202.289062 C 348.359375 204.511719 346.796875 206.710938 345.203125 208.859375 L 344.011719 210.464844 L 342.777344 212.042969 L 337.84375 218.355469 C 337.023438 219.410156 336.136719 220.40625 335.289062 221.4375 C 333.566406 223.46875 331.867188 225.535156 330.121094 227.542969 L 324.742188 233.476562 L 323.390625 234.957031 C 322.9375 235.449219 322.464844 235.921875 322.003906 236.398438 L 316.417969 242.136719 C 315.964844 242.621094 315.484375 243.082031 315 243.539062 L 313.558594 244.925781 C 311.628906 246.769531 309.710938 248.621094 307.769531 250.441406 L 301.796875 255.761719 L 300.304688 257.089844 C 299.800781 257.53125 299.277344 257.945312 298.761719 258.371094 L 295.691406 260.921875 C 291.628906 264.378906 287.34375 267.550781 283.125 270.800781 C 274.535156 277.105469 265.644531 282.96875 256.515625 288.433594 C 247.320312 293.78125 237.898438 298.710938 228.269531 303.1875 C 189.675781 320.941406 147.632812 330.667969 105.5625 332.050781 C 102.9375 332.140625 100.304688 332.132812 97.671875 332.179688 C 96.359375 332.1875 95.046875 332.226562 93.734375 332.210938 L 89.789062 332.125 L 85.851562 332.042969 L 83.886719 332.003906 C 83.226562 331.988281 82.566406 331.945312 81.914062 331.90625 L 74.046875 331.496094 L 73.058594 331.445312 L 72.082031 331.351562 L 70.121094 331.1875 L 66.207031 330.835938 C 64.902344 330.722656 63.589844 330.617188 62.285156 330.488281 L 58.378906 330.011719 L 54.476562 329.539062 C 53.171875 329.378906 51.875 329.234375 50.578125 329.007812 L 42.816406 327.792969 C 41.542969 327.613281 40.183594 327.355469 38.863281 327.089844 C 37.535156 326.816406 36.214844 326.535156 34.894531 326.199219 C 32.253906 325.554688 29.636719 324.804688 27.042969 323.878906 C 24.449219 322.960938 21.875 321.898438 19.371094 320.609375 C 16.867188 319.328125 14.433594 317.792969 12.140625 315.972656 C 9.875 314.136719 7.734375 311.996094 6.019531 309.464844 C 4.28125 306.96875 3.007812 304.085938 2.269531 301.109375 C 1.921875 299.617188 1.679688 298.105469 1.59375 296.566406 C 1.527344 295.03125 1.550781 293.492188 1.769531 291.984375 C 1.976562 290.472656 2.292969 288.972656 2.765625 287.542969 C 2.96875 286.816406 3.257812 286.132812 3.515625 285.433594 C 3.8125 284.753906 4.085938 284.070312 4.433594 283.417969 C 5.722656 280.777344 7.378906 278.410156 9.183594 276.230469 C 11.003906 274.070312 12.976562 272.097656 15.078125 270.320312 C 17.171875 268.53125 19.378906 266.914062 21.65625 265.425781 C 23.933594 263.933594 26.285156 262.589844 28.703125 261.375 C 38.179688 256.640625 48.089844 253.007812 58.136719 250.070312 C 68.1875 247.136719 78.386719 244.90625 88.566406 242.96875 C 98.757812 241.027344 108.953125 239.386719 119.066406 237.597656 C 121.601562 237.15625 124.128906 236.710938 126.648438 236.238281 C 129.167969 235.785156 131.679688 235.292969 134.179688 234.789062 C 136.691406 234.320312 139.179688 233.75 141.671875 233.210938 C 144.160156 232.652344 146.664062 232.15625 149.128906 231.527344 L 156.554688 229.691406 C 159.023438 229.054688 161.472656 228.355469 163.929688 227.6875 L 167.617188 226.679688 L 171.273438 225.585938 C 173.71875 224.851562 176.160156 224.136719 178.589844 223.363281 C 188.285156 220.261719 197.875 216.816406 207.328125 213.078125 C 209.683594 212.128906 212.027344 211.132812 214.378906 210.171875 C 215.546875 209.675781 216.730469 209.199219 217.890625 208.699219 L 221.382812 207.144531 C 223.695312 206.105469 226.03125 205.109375 228.324219 204.023438 L 235.203125 200.769531 L 236.925781 199.949219 L 238.625 199.085938 L 242.027344 197.371094 C 244.285156 196.234375 246.554688 195.101562 248.785156 193.886719 L 255.492188 190.292969 L 262.109375 186.550781 C 270.886719 181.492188 279.523438 176.210938 287.90625 170.550781 L 291.0625 168.457031 L 294.234375 166.300781 C 296.359375 164.84375 298.519531 163.371094 300.742188 161.902344 C 302.972656 160.4375 305.25 158.972656 307.632812 157.566406 C 309.992188 156.15625 312.472656 154.800781 315.042969 153.546875 C 317.617188 152.28125 320.347656 151.164062 323.15625 150.15625 L 325.308594 149.464844 L 326.394531 149.132812 L 327.503906 148.84375 C 328.246094 148.660156 328.984375 148.457031 329.726562 148.289062 L 332.011719 147.839844 C 332.761719 147.683594 333.542969 147.589844 334.324219 147.492188 C 335.105469 147.402344 335.878906 147.273438 336.652344 147.21875 L 338.988281 147.058594 C 339.773438 147.03125 340.554688 147.03125 341.34375 147.015625 C 344.460938 147.03125 347.578125 147.308594 350.628906 147.828125 C 356.722656 148.894531 362.464844 150.882812 367.730469 153.335938 C 370.371094 154.554688 372.90625 155.90625 375.355469 157.316406 C 377.796875 158.730469 380.152344 160.214844 382.441406 161.734375 C 391.59375 167.8125 399.710938 174.449219 407.707031 180.367188 C 409.695312 181.863281 411.699219 183.214844 413.699219 184.601562 C 414.703125 185.285156 415.679688 185.996094 416.714844 186.648438 L 419.792969 188.601562 C 420.832031 189.253906 421.851562 189.914062 422.882812 190.550781 L 426.054688 192.378906 L 429.21875 194.207031 L 432.457031 195.921875 C 441.097656 200.496094 450.105469 204.472656 459.34375 207.945312 C 477.867188 214.917969 497.3125 219.917969 517.121094 224.152344 C 536.945312 228.402344 557.175781 231.878906 577.539062 235.851562 C 597.902344 239.84375 618.472656 244.246094 638.84375 250.457031 L 646.46875 252.871094 C 649.003906 253.722656 651.527344 254.609375 654.054688 255.480469 L 655.003906 255.808594 L 655.996094 256.171875 L 657.976562 256.914062 C 659.296875 257.421875 660.617188 257.953125 661.9375 258.507812 C 664.578125 259.625 667.210938 260.835938 669.835938 262.1875 C 675.070312 264.902344 680.285156 268.136719 685.207031 272.394531 C 687.660156 274.523438 690.050781 276.90625 692.203125 279.652344 C 694.359375 282.386719 696.324219 285.449219 697.863281 288.8125 C 699.394531 292.179688 700.503906 295.808594 701.097656 299.488281 C 701.632812 303.25 701.75 307.105469 701.246094 310.808594 C 701.203125 311.277344 701.117188 311.726562 701.035156 312.179688 L 700.785156 313.546875 L 700.519531 314.902344 C 700.414062 315.34375 700.285156 315.785156 700.164062 316.222656 C 699.914062 317.089844 699.683594 317.976562 699.394531 318.828125 L 698.457031 321.34375 L 698.21875 321.96875 L 697.949219 322.574219 L 697.394531 323.773438 C 697.023438 324.570312 696.648438 325.375 696.21875 326.109375 L 694.933594 328.378906 L 693.523438 330.527344 C 691.589844 333.332031 689.449219 335.957031 687.050781 338.289062 L 686.164062 339.175781 C 685.867188 339.464844 685.550781 339.738281 685.238281 340.015625 C 684.609375 340.570312 683.996094 341.125 683.355469 341.664062 C 682.035156 342.6875 680.746094 343.742188 679.335938 344.652344 L 678.296875 345.351562 L 677.773438 345.699219 L 677.234375 346.027344 L 675.058594 347.292969 C 674.328125 347.703125 673.621094 348.035156 672.902344 348.410156 L 671.832031 348.953125 L 670.738281 349.441406 C 667.839844 350.785156 664.882812 351.824219 661.921875 352.71875 L 659.707031 353.355469 L 657.492188 353.894531 C 656.757812 354.082031 656.019531 354.226562 655.285156 354.378906 C 654.546875 354.515625 653.8125 354.691406 653.085938 354.804688 C 650.148438 355.34375 647.25 355.683594 644.375 355.949219 C 641.507812 356.199219 638.683594 356.34375 635.890625 356.421875 C 633.101562 356.480469 630.34375 356.480469 627.636719 356.421875 C 616.855469 356.207031 606.179688 355.3125 595.625 354 C 574.519531 351.328125 553.964844 346.890625 533.789062 342.011719 C 523.699219 339.578125 513.707031 337.003906 503.738281 334.5 L 488.792969 330.777344 L 481.324219 328.933594 L 473.867188 327.117188 C 453.964844 322.347656 434.050781 317.992188 414.011719 314.691406 C 411.507812 314.296875 408.996094 313.855469 406.484375 313.492188 L 398.960938 312.398438 L 391.410156 311.453125 C 388.898438 311.132812 386.371094 310.90625 383.851562 310.617188 C 373.769531 309.570312 363.671875 308.910156 353.558594 308.660156 C 333.316406 308.152344 313.019531 309.507812 293.019531 313.015625 C 273.042969 316.601562 253.445312 322.621094 234.871094 331.335938 L 233.734375 329.234375 C 242.609375 323.863281 251.957031 319.207031 261.601562 315.238281 L 265.226562 313.75 C 265.828125 313.492188 266.441406 313.265625 267.046875 313.042969 L 274.421875 310.375 L 276.28125 309.773438 C 278.777344 308.984375 281.257812 308.167969 283.761719 307.40625 L 291.328125 305.304688 C 293.863281 304.652344 296.410156 304.070312 298.953125 303.445312 L 300.863281 303 L 302.785156 302.597656 L 306.628906 301.808594 C 307.921875 301.558594 309.195312 301.269531 310.492188 301.058594 L 314.363281 300.40625 L 318.238281 299.746094 C 319.527344 299.539062 320.832031 299.378906 322.125 299.199219 C 332.503906 297.71875 342.964844 296.785156 353.445312 296.375 C 374.414062 295.5625 395.410156 296.601562 416.167969 298.933594 C 436.941406 301.253906 457.515625 304.683594 477.867188 308.667969 C 498.222656 312.566406 518.417969 317.097656 538.449219 321.195312 C 558.464844 325.289062 578.382812 328.941406 598.230469 330.882812 C 608.144531 331.859375 618.046875 332.414062 627.855469 332.382812 C 630.300781 332.382812 632.691406 332.324219 635.050781 332.226562 C 637.402344 332.105469 639.714844 331.9375 641.976562 331.6875 C 646.484375 331.171875 650.785156 330.359375 654.714844 329.105469 C 656.664062 328.460938 658.570312 327.765625 660.328125 326.898438 L 660.996094 326.589844 L 661.644531 326.238281 C 662.058594 326.011719 662.515625 325.792969 662.910156 325.554688 L 664.046875 324.859375 L 664.335938 324.683594 L 665.15625 324.09375 C 665.914062 323.605469 666.589844 322.984375 667.308594 322.4375 L 668.3125 321.519531 C 668.480469 321.367188 668.652344 321.222656 668.8125 321.066406 L 669.28125 320.570312 C 670.574219 319.296875 671.65625 317.871094 672.628906 316.4375 C 672.863281 316.070312 673.089844 315.714844 673.328125 315.351562 L 673.917969 314.234375 C 674.144531 313.871094 674.296875 313.492188 674.457031 313.121094 L 674.707031 312.566406 L 674.835938 312.292969 L 674.933594 312.011719 C 675.058594 311.632812 675.191406 311.261719 675.328125 310.898438 C 675.453125 310.527344 675.519531 310.160156 675.625 309.789062 C 675.679688 309.609375 675.738281 309.425781 675.777344 309.242188 L 675.859375 308.703125 L 675.953125 308.175781 C 675.988281 307.992188 676.035156 307.816406 676.027344 307.644531 C 676.050781 307.292969 676.074219 306.945312 676.117188 306.597656 C 676.148438 306.421875 676.117188 306.253906 676.117188 306.078125 L 676.105469 305.5625 L 676.105469 305.054688 C 676.105469 305.054688 676.042969 304.5625 676.042969 304.5625 C 675.996094 304.222656 675.988281 303.902344 675.9375 303.5625 C 675.6875 302.15625 675.261719 300.828125 674.65625 299.507812 C 673.410156 296.898438 671.308594 294.257812 668.410156 291.777344 C 665.542969 289.296875 661.953125 287.035156 658.039062 285.03125 C 656.089844 284.023438 654.039062 283.074219 651.9375 282.1875 C 650.882812 281.746094 649.8125 281.316406 648.730469 280.898438 L 647.097656 280.285156 L 646.269531 279.980469 L 645.398438 279.675781 L 638.378906 277.265625 L 631.285156 274.980469 C 612.257812 269.113281 592.546875 264.601562 572.539062 260.40625 C 552.539062 256.203125 532.226562 252.257812 511.847656 247.484375 C 491.492188 242.671875 471.03125 236.960938 451.128906 228.980469 C 441.1875 224.988281 431.402344 220.421875 421.957031 215.140625 L 418.414062 213.160156 L 414.929688 211.050781 L 411.457031 208.941406 C 410.316406 208.207031 409.195312 207.445312 408.054688 206.695312 L 404.664062 204.441406 C 403.535156 203.683594 402.457031 202.855469 401.339844 202.066406 C 399.148438 200.464844 396.917969 198.878906 394.839844 197.226562 C 386.441406 190.679688 378.761719 184.054688 370.917969 178.464844 C 363.09375 172.894531 355.089844 168.425781 347.015625 166.6875 C 342.988281 165.855469 338.921875 165.617188 334.894531 166.164062 L 333.375 166.382812 C 332.859375 166.476562 332.351562 166.597656 331.835938 166.703125 L 331.070312 166.855469 L 330.296875 167.066406 L 328.746094 167.476562 C 326.683594 168.121094 324.597656 168.851562 322.503906 169.777344 C 321.980469 169.980469 321.457031 170.238281 320.933594 170.472656 C 320.410156 170.722656 319.878906 170.945312 319.355469 171.210938 C 318.300781 171.742188 317.246094 172.242188 316.191406 172.820312 C 314.082031 173.917969 311.949219 175.148438 309.816406 176.40625 C 307.675781 177.675781 305.515625 178.996094 303.324219 180.34375 C 302.222656 181.019531 301.128906 181.703125 300 182.371094 L 296.617188 184.382812 L 293.230469 186.382812 C 292.101562 187.050781 290.976562 187.726562 289.832031 188.355469 L 282.964844 192.203125 C 281.828125 192.847656 280.667969 193.464844 279.515625 194.070312 L 272.5625 197.742188 C 271.402344 198.347656 270.21875 198.917969 269.050781 199.503906 L 262.027344 203 L 254.917969 206.324219 C 252.558594 207.453125 250.152344 208.484375 247.761719 209.539062 L 244.171875 211.117188 L 242.375 211.90625 L 240.5625 212.652344 L 233.308594 215.632812 C 230.894531 216.628906 228.445312 217.523438 226.007812 218.46875 L 222.351562 219.867188 C 221.128906 220.320312 219.894531 220.746094 218.664062 221.195312 C 216.214844 222.066406 213.761719 222.960938 211.296875 223.820312 C 206.335938 225.457031 201.402344 227.152344 196.402344 228.628906 L 192.671875 229.78125 L 190.804688 230.351562 L 188.914062 230.875 L 181.398438 233 C 178.886719 233.683594 176.351562 234.296875 173.832031 234.957031 L 170.054688 235.945312 L 166.253906 236.832031 C 163.710938 237.414062 161.183594 238.03125 158.644531 238.585938 L 151.003906 240.175781 C 148.460938 240.746094 145.886719 241.171875 143.339844 241.65625 C 140.78125 242.128906 138.234375 242.628906 135.667969 243.046875 C 133.105469 243.476562 130.546875 243.910156 127.992188 244.296875 C 125.433594 244.707031 122.875 245.09375 120.328125 245.480469 C 110.121094 247.027344 99.949219 248.492188 89.871094 250.253906 C 79.804688 252.035156 69.835938 254.136719 60.101562 256.9375 C 50.375 259.738281 40.875 263.242188 31.9375 267.789062 C 27.605469 270.027344 23.484375 272.71875 19.886719 275.882812 C 18.082031 277.453125 16.429688 279.167969 14.957031 280.964844 C 13.507812 282.789062 12.242188 284.707031 11.316406 286.71875 C 11.0625 287.210938 10.875 287.71875 10.664062 288.226562 C 10.488281 288.734375 10.28125 289.242188 10.152344 289.761719 C 9.84375 290.792969 9.644531 291.832031 9.53125 292.871094 C 9.402344 293.917969 9.425781 294.957031 9.492188 295.996094 C 9.585938 297.027344 9.773438 298.058594 10.039062 299.070312 C 11.117188 303.105469 13.765625 306.527344 17.339844 309.199219 C 19.128906 310.519531 21.117188 311.679688 23.234375 312.65625 C 25.351562 313.652344 27.574219 314.492188 29.871094 315.191406 C 32.15625 315.898438 34.515625 316.480469 36.90625 316.953125 C 38.105469 317.203125 39.3125 317.40625 40.519531 317.597656 C 41.738281 317.78125 42.914062 317.953125 44.199219 318.082031 L 51.746094 318.894531 C 53.007812 319.046875 54.265625 319.128906 55.523438 319.214844 L 59.3125 319.488281 L 63.097656 319.753906 C 64.355469 319.8125 65.625 319.835938 66.890625 319.886719 L 70.675781 320.011719 L 72.574219 320.070312 L 73.515625 320.109375 L 74.460938 320.109375 C 74.460938 320.109375 82.042969 320.085938 82.042969 320.085938 C 82.671875 320.078125 83.300781 320.09375 83.933594 320.070312 L 85.828125 320.003906 L 89.613281 319.851562 L 93.394531 319.699219 C 94.652344 319.628906 95.910156 319.515625 97.171875 319.433594 C 99.683594 319.226562 102.203125 319.085938 104.714844 318.839844 L 112.222656 318.03125 L 114.105469 317.824219 L 115.980469 317.558594 L 123.460938 316.496094 C 124.699219 316.316406 125.941406 316.070312 127.179688 315.859375 C 129.660156 315.417969 132.140625 315.011719 134.605469 314.53125 L 141.988281 312.976562 L 143.832031 312.589844 L 145.660156 312.140625 L 149.324219 311.246094 L 152.984375 310.359375 C 154.203125 310.070312 155.410156 309.699219 156.617188 309.371094 C 159.039062 308.699219 161.457031 308.050781 163.863281 307.347656 C 173.476562 304.457031 182.953125 301.179688 192.261719 297.5 C 201.546875 293.765625 210.644531 289.625 219.589844 285.175781 C 228.484375 280.625 237.175781 275.738281 245.660156 270.511719 C 254.089844 265.199219 262.296875 259.5625 270.265625 253.605469 C 278.164062 247.558594 285.828125 241.226562 293.1875 234.546875 C 300.46875 227.796875 307.511719 220.777344 314.140625 213.394531 C 315.78125 211.535156 317.390625 209.640625 319.011719 207.765625 C 319.816406 206.824219 320.660156 205.90625 321.425781 204.933594 L 323.753906 202.027344 L 326.085938 199.132812 L 327.253906 197.683594 L 328.375 196.210938 C 329.886719 194.246094 331.34375 192.273438 332.769531 190.285156 C 335.605469 186.308594 338.246094 182.265625 340.628906 178.160156 C 343.011719 174.046875 345.121094 169.859375 346.875 165.601562 C 348.625 161.347656 350.007812 156.984375 350.917969 152.636719 C 351.820312 148.328125 352.246094 143.910156 352.183594 139.519531 C 352.132812 135.132812 351.5 130.800781 350.363281 126.6875 C 349.234375 122.578125 347.554688 118.707031 345.339844 115.246094 C 345.066406 114.808594 344.75 114.421875 344.460938 113.996094 C 344.15625 113.578125 343.882812 113.144531 343.566406 112.75 L 342.59375 111.574219 C 342.269531 111.1875 341.957031 110.777344 341.585938 110.414062 C 340.855469 109.671875 340.167969 108.902344 339.339844 108.183594 C 338.9375 107.820312 338.558594 107.449219 338.140625 107.082031 L 336.851562 106.011719 C 333.382812 103.160156 329.277344 100.460938 324.953125 97.570312 C 322.800781 96.136719 320.5625 94.59375 318.324219 93 C 316.078125 91.332031 313.816406 89.625 311.617188 87.636719 C 309.398438 85.71875 307.296875 83.464844 305.308594 81.097656 C 304.832031 80.484375 304.371094 79.84375 303.90625 79.214844 C 303.4375 78.578125 302.964844 77.964844 302.546875 77.265625 C 302.125 76.582031 301.667969 75.914062 301.296875 75.203125 C 300.917969 74.496094 300.507812 73.804688 300.175781 73.078125 C 297.34375 67.320312 295.957031 61.035156 295.8125 54.90625 C 295.667969 48.761719 296.675781 42.742188 298.617188 37.097656 C 300.5625 31.46875 303.40625 26.179688 307.101562 21.515625 C 308.945312 19.179688 310.992188 17 313.238281 15.019531 C 314.363281 14.035156 315.53125 13.09375 316.753906 12.214844 C 317.351562 11.75 317.980469 11.386719 318.59375 10.984375 L 320.445312 9.816406 C 325.46875 6.8125 330.925781 4.6875 336.480469 3.382812 C 342.03125 2.0625 347.707031 1.582031 353.285156 1.789062 C 358.875 1.984375 364.375 2.859375 369.695312 4.328125 C 375 5.808594 380.144531 7.910156 384.921875 10.527344 C 389.703125 13.132812 394.148438 16.234375 398.269531 19.65625 C 402.394531 23.078125 406.175781 26.855469 409.632812 30.855469 C 416.5625 38.859375 422.238281 47.742188 426.894531 57.03125 L 424.824219 58.222656 Z M 424.855469 58.257812 " fill-opacity="1" fill-rule="nonzero"/></g><path fill="#f963af" d="M 514.535156 123.601562 L 501.574219 126.710938 C 484.277344 130.855469 470.773438 144.359375 466.621094 161.65625 L 463.519531 174.617188 L 460.40625 161.65625 C 456.265625 144.367188 442.761719 130.855469 425.460938 126.710938 L 412.503906 123.601562 L 425.460938 120.496094 C 442.753906 116.355469 456.265625 102.847656 460.40625 85.542969 L 463.519531 72.585938 L 466.621094 85.542969 C 470.765625 102.84375 484.269531 116.347656 501.574219 120.496094 Z M 514.535156 123.601562 " fill-opacity="1" fill-rule="nonzero"/><path fill="#f963af" d="M 229.128906 157.683594 L 218.742188 160.171875 C 204.878906 163.492188 194.050781 174.320312 190.730469 188.183594 L 188.242188 198.570312 L 185.75 188.183594 C 182.429688 174.320312 171.601562 163.492188 157.738281 160.171875 L 147.351562 157.683594 L 157.738281 155.195312 C 171.601562 151.871094 182.429688 141.042969 185.75 127.183594 L 188.242188 116.792969 L 190.730469 127.183594 C 194.050781 141.042969 204.878906 151.871094 218.742188 155.195312 Z M 229.128906 157.683594 " fill-opacity="1" fill-rule="nonzero"/><path fill="#f963af" d="M 282.945312 25.398438 L 277.09375 26.796875 C 269.292969 28.660156 263.203125 34.761719 261.328125 42.570312 L 259.925781 48.417969 L 258.527344 42.570312 C 256.652344 34.761719 250.5625 28.667969 242.753906 26.796875 L 236.90625 25.398438 L 242.753906 23.996094 C 250.5625 22.128906 256.652344 16.03125 258.527344 8.222656 L 259.925781 2.371094 L 261.328125 8.222656 C 263.195312 16.03125 269.292969 22.121094 277.09375 23.996094 Z M 282.945312 25.398438 " fill-opacity="1" fill-rule="nonzero"/><path fill="#f963af" d="M 51.335938 576.621094 C 50.820312 568.414062 47.378906 560.765625 41.511719 554.902344 C 35.644531 549.035156 28 545.59375 19.792969 545.078125 C 28 544.5625 35.644531 541.121094 41.511719 535.253906 C 47.378906 529.386719 50.820312 521.742188 51.335938 513.535156 C 51.847656 521.742188 55.289062 529.386719 61.15625 535.253906 C 67.023438 541.121094 74.667969 544.5625 82.875 545.078125 C 74.667969 545.59375 67.023438 549.035156 61.15625 554.902344 C 55.289062 560.765625 51.847656 568.410156 51.335938 576.621094 Z M 51.335938 576.621094 " fill-opacity="1" fill-rule="nonzero"/><g clip-path="url(#fd9a361bd0)"><path fill="#f963af" d="M 51.335938 514.429688 C 51.644531 517.917969 52.488281 521.3125 53.859375 524.546875 C 55.5625 528.578125 58.003906 532.195312 61.109375 535.300781 C 64.21875 538.410156 67.835938 540.847656 71.863281 542.554688 C 75.101562 543.921875 78.492188 544.765625 81.984375 545.078125 C 78.492188 545.386719 75.101562 546.234375 71.863281 547.601562 C 67.835938 549.304688 64.21875 551.746094 61.109375 554.851562 C 58.003906 557.960938 55.5625 561.578125 53.859375 565.609375 C 52.492188 568.84375 51.644531 572.234375 51.335938 575.726562 C 51.023438 572.234375 50.179688 568.84375 48.808594 565.609375 C 47.105469 561.578125 44.664062 557.960938 41.558594 554.851562 C 38.453125 551.746094 34.832031 549.304688 30.804688 547.601562 C 27.570312 546.234375 24.175781 545.390625 20.6875 545.078125 C 24.175781 544.769531 27.570312 543.921875 30.804688 542.554688 C 34.832031 540.847656 38.453125 538.410156 41.558594 535.300781 C 44.664062 532.195312 47.105469 528.578125 48.808594 524.546875 C 50.179688 521.3125 51.023438 517.921875 51.335938 514.429688 M 51.335938 511.378906 C 51.335938 529.988281 36.246094 545.078125 17.632812 545.078125 C 36.246094 545.078125 51.335938 560.164062 51.335938 578.777344 C 51.335938 560.164062 66.421875 545.078125 85.035156 545.078125 C 66.421875 545.078125 51.335938 529.988281 51.335938 511.378906 Z M 51.335938 511.378906 " fill-opacity="1" fill-rule="nonzero"/></g><path fill="#f963af" d="M 43.835938 423.445312 C 43.4375 417.066406 40.761719 411.121094 36.199219 406.558594 C 31.636719 402 25.695312 399.320312 19.3125 398.921875 C 25.695312 398.519531 31.636719 395.84375 36.199219 391.285156 C 40.761719 386.722656 43.4375 380.777344 43.835938 374.398438 C 44.238281 380.777344 46.914062 386.722656 51.476562 391.285156 C 56.035156 395.84375 61.980469 398.519531 68.363281 398.921875 C 61.980469 399.320312 56.035156 402 51.476562 406.558594 C 46.914062 411.121094 44.238281 417.066406 43.835938 423.445312 Z M 43.835938 423.445312 " fill-opacity="1" fill-rule="nonzero"/><g clip-path="url(#983a93cbec)"><path fill="#f963af" d="M 43.835938 375.089844 C 44.078125 377.804688 44.734375 380.445312 45.800781 382.957031 C 47.125 386.089844 49.023438 388.90625 51.4375 391.320312 C 53.855469 393.738281 56.667969 395.632812 59.800781 396.957031 C 62.316406 398.023438 64.953125 398.679688 67.667969 398.921875 C 64.953125 399.164062 62.316406 399.820312 59.800781 400.886719 C 56.667969 402.210938 53.855469 404.105469 51.4375 406.523438 C 49.023438 408.9375 47.125 411.75 45.800781 414.886719 C 44.738281 417.398438 44.078125 420.039062 43.835938 422.753906 C 43.597656 420.039062 42.9375 417.398438 41.875 414.886719 C 40.550781 411.75 38.652344 408.9375 36.238281 406.523438 C 33.820312 404.105469 31.007812 402.210938 27.875 400.886719 C 25.359375 399.820312 22.722656 399.164062 20.007812 398.921875 C 22.722656 398.679688 25.359375 398.023438 27.875 396.957031 C 31.007812 395.632812 33.820312 393.738281 36.238281 391.320312 C 38.652344 388.90625 40.550781 386.089844 41.875 382.957031 C 42.9375 380.445312 43.597656 377.804688 43.835938 375.089844 M 43.835938 372.71875 C 43.835938 387.191406 32.105469 398.921875 17.632812 398.921875 C 32.105469 398.921875 43.835938 410.652344 43.835938 425.125 C 43.835938 410.652344 55.570312 398.921875 70.039062 398.921875 C 55.570312 398.921875 43.835938 387.191406 43.835938 372.71875 Z M 43.835938 372.71875 " fill-opacity="1" fill-rule="nonzero"/></g><path fill="#f963af" d="M 633.320312 239.109375 C 632.921875 232.726562 630.246094 226.785156 625.683594 222.222656 C 621.121094 217.660156 615.179688 214.984375 608.796875 214.585938 C 615.179688 214.183594 621.121094 211.507812 625.683594 206.945312 C 630.246094 202.386719 632.921875 196.441406 633.320312 190.058594 C 633.722656 196.441406 636.398438 202.386719 640.957031 206.945312 C 645.519531 211.507812 651.464844 214.183594 657.847656 214.585938 C 651.464844 214.984375 645.519531 217.660156 640.957031 222.222656 C 636.398438 226.785156 633.722656 232.726562 633.320312 239.109375 Z M 633.320312 239.109375 " fill-opacity="1" fill-rule="nonzero"/><g clip-path="url(#e0476cf95c)"><path fill="#f963af" d="M 633.320312 190.753906 C 633.5625 193.46875 634.21875 196.105469 635.285156 198.621094 C 636.609375 201.753906 638.507812 204.566406 640.921875 206.984375 C 643.339844 209.398438 646.152344 211.296875 649.285156 212.621094 C 651.800781 213.683594 654.4375 214.34375 657.152344 214.585938 C 654.4375 214.824219 651.800781 215.484375 649.285156 216.546875 C 646.152344 217.871094 643.339844 219.769531 640.921875 222.183594 C 638.507812 224.601562 636.609375 227.414062 635.285156 230.546875 C 634.21875 233.0625 633.5625 235.699219 633.320312 238.414062 C 633.082031 235.699219 632.421875 233.0625 631.359375 230.546875 C 630.035156 227.414062 628.136719 224.601562 625.71875 222.183594 C 623.304688 219.769531 620.492188 217.871094 617.359375 216.546875 C 614.84375 215.484375 612.207031 214.828125 609.492188 214.585938 C 612.203125 214.34375 614.84375 213.6875 617.359375 212.621094 C 620.492188 211.296875 623.304688 209.398438 625.71875 206.984375 C 628.136719 204.566406 630.035156 201.753906 631.359375 198.621094 C 632.421875 196.105469 633.082031 193.46875 633.320312 190.753906 M 633.320312 188.382812 C 633.320312 202.851562 621.589844 214.585938 607.117188 214.585938 C 621.589844 214.585938 633.320312 226.316406 633.320312 240.789062 C 633.320312 226.316406 645.054688 214.585938 659.523438 214.585938 C 645.054688 214.585938 633.320312 202.851562 633.320312 188.382812 Z M 633.320312 188.382812 " fill-opacity="1" fill-rule="nonzero"/></g><path fill="#f963af" d="M 647.570312 518.011719 C 646.953125 508.160156 642.820312 498.980469 635.78125 491.9375 C 628.738281 484.898438 619.5625 480.765625 609.707031 480.148438 C 619.5625 479.53125 628.738281 475.398438 635.78125 468.355469 C 642.820312 461.316406 646.953125 452.140625 647.570312 442.285156 C 648.1875 452.140625 652.320312 461.316406 659.363281 468.355469 C 666.402344 475.398438 675.582031 479.53125 685.433594 480.148438 C 675.582031 480.765625 666.402344 484.898438 659.363281 491.9375 C 652.320312 498.980469 648.1875 508.15625 647.570312 518.011719 Z M 647.570312 518.011719 " fill-opacity="1" fill-rule="nonzero"/><g clip-path="url(#d7dfcacd6d)"><path fill="#f963af" d="M 647.570312 443.359375 C 647.941406 447.546875 648.957031 451.621094 650.601562 455.503906 C 652.648438 460.339844 655.574219 464.683594 659.304688 468.414062 C 663.035156 472.144531 667.378906 475.070312 672.214844 477.117188 C 676.097656 478.761719 680.167969 479.773438 684.359375 480.148438 C 680.171875 480.519531 676.097656 481.535156 672.214844 483.179688 C 667.378906 485.222656 663.035156 488.152344 659.304688 491.882812 C 655.574219 495.613281 652.648438 499.957031 650.601562 504.792969 C 648.960938 508.675781 647.945312 512.746094 647.570312 516.9375 C 647.199219 512.75 646.183594 508.675781 644.539062 504.792969 C 642.496094 499.957031 639.566406 495.613281 635.835938 491.882812 C 632.105469 488.152344 627.761719 485.222656 622.925781 483.179688 C 619.042969 481.535156 614.972656 480.523438 610.78125 480.148438 C 614.972656 479.777344 619.042969 478.761719 622.925781 477.117188 C 627.761719 475.070312 632.105469 472.144531 635.835938 468.414062 C 639.566406 464.683594 642.496094 460.339844 644.539062 455.503906 C 646.183594 451.621094 647.199219 447.550781 647.570312 443.359375 M 647.570312 439.695312 C 647.570312 462.035156 629.460938 480.148438 607.117188 480.148438 C 629.460938 480.148438 647.570312 498.257812 647.570312 520.601562 C 647.570312 498.257812 665.683594 480.148438 688.023438 480.148438 C 665.683594 480.148438 647.570312 462.035156 647.570312 439.695312 Z M 647.570312 439.695312 " fill-opacity="1" fill-rule="nonzero"/></g></g></g></svg>